<mxfile compressed="false" host="app.diagrams.net" modified="2024-03-24T19:28:02.775Z" agent="Mozilla/5.0 (Macintosh; Intel Mac OS X 10_15_7) AppleWebKit/537.36 (KHTML, like Gecko) Chrome/123.0.0.0 Safari/537.36" etag="yOD73NC173F8eo-uew0X" version="24.0.7" type="github" pages="2">
  <diagram id="Network Topology" name="Physical topology">
    <mxGraphModel dx="2074" dy="1155" grid="0" gridSize="2" guides="1" tooltips="1" connect="1" arrows="1" fold="1" page="1" pageScale="1" pageWidth="3300" pageHeight="4681" background="#4D5766" math="0" shadow="0">
      <root>
        <mxCell id="0" />
        <mxCell id="1" parent="0" />
        <mxCell id="XFLzxQZfM_v2sXhXUsD--137" value="" style="group" parent="1" vertex="1" connectable="0">
          <mxGeometry x="1668" y="419" width="75" height="75.00000000000006" as="geometry" />
        </mxCell>
        <mxCell id="XFLzxQZfM_v2sXhXUsD--138" value="" style="whiteSpace=wrap;html=1;aspect=fixed;fillColor=#edf3f5;strokeColor=none;connectable=1;allowArrows=1;" parent="XFLzxQZfM_v2sXhXUsD--137" vertex="1">
          <mxGeometry width="75" height="75" as="geometry" />
        </mxCell>
        <mxCell id="XFLzxQZfM_v2sXhXUsD--139" value="" style="endArrow=open;html=1;rounded=0;endFill=0;startSize=6;endSize=6;strokeColor=#4D5766;strokeWidth=2;entryX=0.56;entryY=0.441;entryDx=0;entryDy=0;entryPerimeter=0;exitX=0.84;exitY=0.161;exitDx=0;exitDy=0;exitPerimeter=0;" parent="XFLzxQZfM_v2sXhXUsD--137" source="XFLzxQZfM_v2sXhXUsD--138" target="XFLzxQZfM_v2sXhXUsD--138" edge="1">
          <mxGeometry width="50" height="50" relative="1" as="geometry">
            <mxPoint x="63" y="12.069999999999993" as="sourcePoint" />
            <mxPoint x="43" y="32.06999999999999" as="targetPoint" />
          </mxGeometry>
        </mxCell>
        <mxCell id="XFLzxQZfM_v2sXhXUsD--140" value="" style="endArrow=open;html=1;rounded=0;endFill=0;startSize=6;endSize=6;strokeColor=#4D5766;strokeWidth=2;entryX=0.44;entryY=0.561;entryDx=0;entryDy=0;entryPerimeter=0;exitX=0.16;exitY=0.841;exitDx=0;exitDy=0;exitPerimeter=0;" parent="XFLzxQZfM_v2sXhXUsD--137" edge="1">
          <mxGeometry width="50" height="50" relative="1" as="geometry">
            <mxPoint x="11.999999999999943" y="63.07500000000033" as="sourcePoint" />
            <mxPoint x="33" y="42.0750000000001" as="targetPoint" />
          </mxGeometry>
        </mxCell>
        <mxCell id="XFLzxQZfM_v2sXhXUsD--141" value="" style="endArrow=open;html=1;rounded=0;endFill=0;startSize=6;endSize=6;strokeColor=#4D5766;strokeWidth=2;entryX=0.173;entryY=0.174;entryDx=0;entryDy=0;entryPerimeter=0;exitX=0.44;exitY=0.441;exitDx=0;exitDy=0;exitPerimeter=0;" parent="XFLzxQZfM_v2sXhXUsD--137" source="XFLzxQZfM_v2sXhXUsD--138" target="XFLzxQZfM_v2sXhXUsD--138" edge="1">
          <mxGeometry width="50" height="50" relative="1" as="geometry">
            <mxPoint x="65" y="14.069999999999993" as="sourcePoint" />
            <mxPoint x="44" y="35.06999999999999" as="targetPoint" />
          </mxGeometry>
        </mxCell>
        <mxCell id="XFLzxQZfM_v2sXhXUsD--142" value="" style="endArrow=open;html=1;rounded=0;endFill=0;startSize=6;endSize=6;strokeColor=#4D5766;strokeWidth=2;entryX=0.827;entryY=0.828;entryDx=0;entryDy=0;entryPerimeter=0;" parent="XFLzxQZfM_v2sXhXUsD--137" target="XFLzxQZfM_v2sXhXUsD--138" edge="1">
          <mxGeometry width="50" height="50" relative="1" as="geometry">
            <mxPoint x="42" y="42.06999999999999" as="sourcePoint" />
            <mxPoint x="15" y="15.069999999999993" as="targetPoint" />
          </mxGeometry>
        </mxCell>
        <mxCell id="XFLzxQZfM_v2sXhXUsD--143" value="p1" style="text;html=1;align=center;verticalAlign=middle;resizable=0;points=[];autosize=1;strokeColor=none;fillColor=none;fontFamily=Google Sans;fontSource=https%3A%2F%2Ffonts.googleapis.com%2Fcss%3Ffamily%3DGoogle%2BSans;fontColor=#FFFFFF;rotation=0;fontStyle=1" parent="1" vertex="1">
          <mxGeometry x="1690.5" y="393" width="30" height="26" as="geometry" />
        </mxCell>
        <object label="" src_label="e1-6" trgt_label="e1-31" source="spine1-dc1" target="leaf4-dc1" id="11e34e62b492b558eb1147c751843e40">
          <mxCell style="endArrow=none;jumpStyle=gap;exitY=1;exitX=0.5;fontFamily=Google Sans;fontSource=https%3A%2F%2Ffonts.googleapis.com%2Fcss%3Ffamily%3DGoogle%2BSans;entryX=0.5;entryY=0;entryDx=0;entryDy=0;strokeColor=#98A2AE;exitDx=0;exitDy=0;" parent="1" source="XFLzxQZfM_v2sXhXUsD--76" target="XFLzxQZfM_v2sXhXUsD--37" edge="1">
            <mxGeometry relative="1" as="geometry">
              <mxPoint x="1312.4999999999998" y="820.5" as="sourcePoint" />
              <mxPoint x="1565" y="973.5" as="targetPoint" />
            </mxGeometry>
          </mxCell>
        </object>
        <object label="" src_label="e1-3" trgt_label="e1-32" source="spine2-dc1" target="leaf1-dc1" id="be8a9e7dc0bc1c43fab98ff7dd33c904">
          <mxCell style="endArrow=none;jumpStyle=gap;entryY=0;exitY=1;entryX=0.5;exitX=0.5;fontFamily=Google Sans;fontSource=https%3A%2F%2Ffonts.googleapis.com%2Fcss%3Ffamily%3DGoogle%2BSans;entryDx=0;entryDy=0;strokeColor=#98A2AE;exitDx=0;exitDy=0;" parent="1" source="XFLzxQZfM_v2sXhXUsD--84" target="XFLzxQZfM_v2sXhXUsD--2" edge="1">
            <mxGeometry relative="1" as="geometry">
              <mxPoint x="1452.4999999999998" y="820.5" as="sourcePoint" />
              <mxPoint x="1152.5" y="975.04" as="targetPoint" />
            </mxGeometry>
          </mxCell>
        </object>
        <object label="" src_label="eth1" trgt_label="eth5" source="dcgw1-dc1" target="p1" id="0c637271b958e190790944e216d0e1cd">
          <mxCell style="endArrow=none;jumpStyle=gap;entryY=0.25;exitY=0;entryX=0;exitX=0.5;exitDx=0;exitDy=0;fontFamily=Google Sans;fontSource=https%3A%2F%2Ffonts.googleapis.com%2Fcss%3Ffamily%3DGoogle%2BSans;entryDx=0;entryDy=0;strokeColor=#98A2AE;" parent="1" source="XFLzxQZfM_v2sXhXUsD--105" target="XFLzxQZfM_v2sXhXUsD--138" edge="1">
            <mxGeometry relative="1" as="geometry">
              <mxPoint x="1312.5" y="534.3199999999999" as="sourcePoint" />
              <mxPoint x="1682.5000000000002" y="410.5000000000002" as="targetPoint" />
              <Array as="points">
                <mxPoint x="1356" y="441.5" />
              </Array>
            </mxGeometry>
          </mxCell>
        </object>
        <object label="" src_label="eth1" trgt_label="eth6" source="dcgw2-dc1" target="p1" id="ba817ebb1d00d02cf8c0dcaba1a7e5be">
          <mxCell style="endArrow=none;jumpStyle=gap;entryY=0.75;exitY=0;entryX=0;exitX=0.5;exitDx=0;exitDy=0;fontFamily=Google Sans;fontSource=https%3A%2F%2Ffonts.googleapis.com%2Fcss%3Ffamily%3DGoogle%2BSans;entryDx=0;entryDy=0;strokeColor=#98A2AE;" parent="1" source="XFLzxQZfM_v2sXhXUsD--118" target="XFLzxQZfM_v2sXhXUsD--138" edge="1">
            <mxGeometry relative="1" as="geometry">
              <mxPoint x="1452.5" y="534.3199999999999" as="sourcePoint" />
              <mxPoint x="1682.5000000000002" y="410.5000000000002" as="targetPoint" />
              <Array as="points">
                <mxPoint x="1466" y="479.5" />
              </Array>
            </mxGeometry>
          </mxCell>
        </object>
        <object label="" src_label="e1-31" trgt_label="eth3" source="spine1-dc1" target="dcgw1-dc1" id="8b5859603a6925d2c849d9743de38a1e">
          <mxCell style="endArrow=none;jumpStyle=gap;entryY=1;exitY=0;entryX=0.5;exitX=0.5;entryDx=0;entryDy=0;exitDx=0;exitDy=0;fontFamily=Google Sans;fontSource=https%3A%2F%2Ffonts.googleapis.com%2Fcss%3Ffamily%3DGoogle%2BSans;strokeColor=#98A2AE;" parent="1" target="XFLzxQZfM_v2sXhXUsD--105" edge="1">
            <mxGeometry relative="1" as="geometry">
              <mxPoint x="1312.4999999999998" y="745.5" as="sourcePoint" />
              <mxPoint x="1312.5" y="609.3199999999999" as="targetPoint" />
            </mxGeometry>
          </mxCell>
        </object>
        <object label="" src_label="e1-32" trgt_label="eth3" source="spine1-dc1" target="dcgw2-dc1" id="ae8b20479fd1f1029cdc591704fd1946">
          <mxCell style="endArrow=none;jumpStyle=gap;entryY=1;exitY=0;entryX=0.5;exitX=0.5;entryDx=0;entryDy=0;exitDx=0;exitDy=0;fontFamily=Google Sans;fontSource=https%3A%2F%2Ffonts.googleapis.com%2Fcss%3Ffamily%3DGoogle%2BSans;strokeColor=#98A2AE;" parent="1" target="XFLzxQZfM_v2sXhXUsD--118" edge="1">
            <mxGeometry relative="1" as="geometry">
              <mxPoint x="1312.4999999999998" y="745.5" as="sourcePoint" />
              <mxPoint x="1452.5" y="609.3199999999999" as="targetPoint" />
            </mxGeometry>
          </mxCell>
        </object>
        <object label="" src_label="e1-31" trgt_label="eth2" source="spine2-dc1" target="dcgw1-dc1" id="463040eab10b4bd470083bbec6d00ecb">
          <mxCell style="endArrow=none;jumpStyle=gap;entryY=1;exitY=0;entryX=0.5;exitX=0.5;entryDx=0;entryDy=0;exitDx=0;exitDy=0;fontFamily=Google Sans;fontSource=https%3A%2F%2Ffonts.googleapis.com%2Fcss%3Ffamily%3DGoogle%2BSans;strokeColor=#98A2AE;" parent="1" target="XFLzxQZfM_v2sXhXUsD--105" edge="1">
            <mxGeometry relative="1" as="geometry">
              <mxPoint x="1452.4999999999998" y="745.5" as="sourcePoint" />
              <mxPoint x="1312.5" y="609.3199999999999" as="targetPoint" />
            </mxGeometry>
          </mxCell>
        </object>
        <object label="" src_label="e1-32" trgt_label="eth2" source="spine2-dc1" target="dcgw2-dc1" id="3e7dd368fed04e2676a872ebfd4182c9">
          <mxCell style="endArrow=none;jumpStyle=gap;entryY=1;exitY=0;entryX=0.5;exitX=0.5;entryDx=0;entryDy=0;exitDx=0;exitDy=0;fontFamily=Google Sans;fontSource=https%3A%2F%2Ffonts.googleapis.com%2Fcss%3Ffamily%3DGoogle%2BSans;strokeColor=#98A2AE;" parent="1" target="XFLzxQZfM_v2sXhXUsD--118" edge="1">
            <mxGeometry relative="1" as="geometry">
              <mxPoint x="1452.4999999999998" y="745.5" as="sourcePoint" />
              <mxPoint x="1452.5" y="609.3199999999999" as="targetPoint" />
            </mxGeometry>
          </mxCell>
        </object>
        <object label="" src_label="e1-3" trgt_label="e1-31" source="spine1-dc1" target="leaf1-dc1" id="c7b0d9f3b5555ca65e23e2e205f105c9">
          <mxCell style="endArrow=none;jumpStyle=gap;entryY=0;exitY=1;entryX=0.5;exitX=0.5;fontFamily=Google Sans;fontSource=https%3A%2F%2Ffonts.googleapis.com%2Fcss%3Ffamily%3DGoogle%2BSans;entryDx=0;entryDy=0;strokeColor=#98A2AE;exitDx=0;exitDy=0;" parent="1" source="XFLzxQZfM_v2sXhXUsD--76" target="XFLzxQZfM_v2sXhXUsD--2" edge="1">
            <mxGeometry relative="1" as="geometry">
              <mxPoint x="1312.4999999999998" y="820.5" as="sourcePoint" />
              <mxPoint x="1152.5" y="975.04" as="targetPoint" />
            </mxGeometry>
          </mxCell>
        </object>
        <object label="" src_label="e1-4" trgt_label="e1-31" source="spine1-dc1" target="leaf2-dc1" id="80936374bf88d85b9fb00a365d6dc8f9">
          <mxCell style="endArrow=none;jumpStyle=gap;entryY=0;exitY=1;entryX=0.5;exitX=0.5;fontFamily=Google Sans;fontSource=https%3A%2F%2Ffonts.googleapis.com%2Fcss%3Ffamily%3DGoogle%2BSans;strokeColor=#98A2AE;exitDx=0;exitDy=0;" parent="1" source="XFLzxQZfM_v2sXhXUsD--76" edge="1">
            <mxGeometry relative="1" as="geometry">
              <mxPoint x="1312.4999999999998" y="820.5" as="sourcePoint" />
              <mxPoint x="1292.5" y="975.04" as="targetPoint" />
            </mxGeometry>
          </mxCell>
        </object>
        <object label="" src_label="e1-5" trgt_label="e1-31" source="spine1-dc1" target="leaf3-dc1" id="5a4bb3fd4d41b908d43d3258d2866f88">
          <mxCell style="endArrow=none;jumpStyle=gap;entryY=0;exitY=1;entryX=0.5;exitX=0.5;fontFamily=Google Sans;fontSource=https%3A%2F%2Ffonts.googleapis.com%2Fcss%3Ffamily%3DGoogle%2BSans;strokeColor=#98A2AE;exitDx=0;exitDy=0;" parent="1" source="XFLzxQZfM_v2sXhXUsD--76" edge="1">
            <mxGeometry relative="1" as="geometry">
              <mxPoint x="1312.4999999999998" y="820.5" as="sourcePoint" />
              <mxPoint x="1442.5" y="975.04" as="targetPoint" />
            </mxGeometry>
          </mxCell>
        </object>
        <object label="" src_label="e1-4" trgt_label="e1-32" source="spine2-dc1" target="leaf2-dc1" id="39bf41ef825ae28d1df6ae6bf73058ed">
          <mxCell style="endArrow=none;jumpStyle=gap;entryY=0;exitY=1;entryX=0.5;exitX=0.5;fontFamily=Google Sans;fontSource=https%3A%2F%2Ffonts.googleapis.com%2Fcss%3Ffamily%3DGoogle%2BSans;strokeColor=#98A2AE;" parent="1" edge="1">
            <mxGeometry relative="1" as="geometry">
              <mxPoint x="1452.4999999999998" y="820.5" as="sourcePoint" />
              <mxPoint x="1292.5" y="975.04" as="targetPoint" />
            </mxGeometry>
          </mxCell>
        </object>
        <object label="" src_label="e1-5" trgt_label="e1-32" source="spine2-dc1" target="leaf3-dc1" id="a9f58ea33ed91c2b39748e73223c3110">
          <mxCell style="endArrow=none;jumpStyle=gap;entryY=0;exitY=1;entryX=0.5;exitX=0.5;fontFamily=Google Sans;fontSource=https%3A%2F%2Ffonts.googleapis.com%2Fcss%3Ffamily%3DGoogle%2BSans;strokeColor=#98A2AE;" parent="1" edge="1">
            <mxGeometry relative="1" as="geometry">
              <mxPoint x="1452.4999999999998" y="820.5" as="sourcePoint" />
              <mxPoint x="1442.5" y="975.04" as="targetPoint" />
            </mxGeometry>
          </mxCell>
        </object>
        <object label="" src_label="e1-6" trgt_label="e1-32" source="spine2-dc1" target="leaf4-dc1" id="620fc4d52e0297e8f771b124b08fa147">
          <mxCell style="endArrow=none;jumpStyle=gap;entryY=0;exitY=1;entryX=0.5;exitX=0.5;fontFamily=Google Sans;fontSource=https%3A%2F%2Ffonts.googleapis.com%2Fcss%3Ffamily%3DGoogle%2BSans;entryDx=0;entryDy=0;strokeColor=#98A2AE;exitDx=0;exitDy=0;" parent="1" source="XFLzxQZfM_v2sXhXUsD--84" target="XFLzxQZfM_v2sXhXUsD--37" edge="1">
            <mxGeometry relative="1" as="geometry">
              <mxPoint x="1452.4999999999998" y="820.5" as="sourcePoint" />
              <mxPoint x="1582.5" y="975.04" as="targetPoint" />
            </mxGeometry>
          </mxCell>
        </object>
        <object label="" src_label="eth1" trgt_label="e1-1" source="client1-dc1" target="leaf1-dc1" id="b430e8e39376845e516a7affae09f064">
          <mxCell style="endArrow=none;jumpStyle=gap;entryY=1;exitY=0;entryX=0.5;exitX=0.5;exitDx=0;exitDy=0;entryDx=0;entryDy=0;fontFamily=Google Sans;fontSource=https%3A%2F%2Ffonts.googleapis.com%2Fcss%3Ffamily%3DGoogle%2BSans;strokeColor=#98a2ae;" parent="1" source="XFLzxQZfM_v2sXhXUsD--22" target="XFLzxQZfM_v2sXhXUsD--2" edge="1">
            <mxGeometry relative="1" as="geometry">
              <mxPoint x="1152.5" y="1115.04" as="sourcePoint" />
              <mxPoint x="1152.5" y="1050.04" as="targetPoint" />
            </mxGeometry>
          </mxCell>
        </object>
        <mxCell id="XFLzxQZfM_v2sXhXUsD--19" value="" style="endArrow=none;jumpStyle=gap;entryY=1;exitY=0;entryX=0.5;exitX=0.5;exitDx=0;exitDy=0;entryDx=0;entryDy=0;fontFamily=Google Sans;fontSource=https%3A%2F%2Ffonts.googleapis.com%2Fcss%3Ffamily%3DGoogle%2BSans;strokeColor=#98a2ae;" parent="1" source="XFLzxQZfM_v2sXhXUsD--10" target="XFLzxQZfM_v2sXhXUsD--18" edge="1">
          <mxGeometry relative="1" as="geometry">
            <mxPoint x="1152.5" y="1115.04" as="sourcePoint" />
            <mxPoint x="1153" y="1050.5" as="targetPoint" />
          </mxGeometry>
        </mxCell>
        <mxCell id="XFLzxQZfM_v2sXhXUsD--18" value="eth1" style="rounded=1;whiteSpace=wrap;html=1;fontFamily=Google Sans;fontSource=https%3A%2F%2Ffonts.googleapis.com%2Fcss%3Ffamily%3DGoogle%2BSans;arcSize=32;spacing=0;spacingBottom=1;fillColor=#f5f5f5;fontColor=#333333;strokeColor=#98A2AE;fontSize=10;" parent="1" vertex="1">
          <mxGeometry x="1140" y="1092.5" width="25" height="13" as="geometry" />
        </mxCell>
        <mxCell id="XFLzxQZfM_v2sXhXUsD--23" value="" style="endArrow=none;jumpStyle=gap;entryY=1;exitY=0;entryX=0.5;exitX=0.5;exitDx=0;exitDy=0;entryDx=0;entryDy=0;fontFamily=Google Sans;fontSource=https%3A%2F%2Ffonts.googleapis.com%2Fcss%3Ffamily%3DGoogle%2BSans;strokeColor=#98a2ae;" parent="1" source="XFLzxQZfM_v2sXhXUsD--18" target="XFLzxQZfM_v2sXhXUsD--22" edge="1">
          <mxGeometry relative="1" as="geometry">
            <mxPoint x="1153" y="1092.5" as="sourcePoint" />
            <mxPoint x="1152" y="1050.5" as="targetPoint" />
          </mxGeometry>
        </mxCell>
        <mxCell id="XFLzxQZfM_v2sXhXUsD--22" value="e1-1" style="rounded=1;whiteSpace=wrap;html=1;fontFamily=Google Sans;fontSource=https%3A%2F%2Ffonts.googleapis.com%2Fcss%3Ffamily%3DGoogle%2BSans;arcSize=32;spacing=0;spacingBottom=1;fillColor=#f5f5f5;fontColor=#333333;strokeColor=#98A2AE;fontSize=10;align=center;verticalAlign=middle;" parent="1" vertex="1">
          <mxGeometry x="1140" y="1057.5" width="25" height="13" as="geometry" />
        </mxCell>
        <object label="" src_label="eth1" trgt_label="e1-1" source="client1-dc1" target="leaf1-dc1" id="XFLzxQZfM_v2sXhXUsD--47">
          <mxCell style="endArrow=none;jumpStyle=gap;entryY=1;exitY=0;entryX=0.5;exitX=0.5;exitDx=0;exitDy=0;entryDx=0;entryDy=0;fontFamily=Google Sans;fontSource=https%3A%2F%2Ffonts.googleapis.com%2Fcss%3Ffamily%3DGoogle%2BSans;strokeColor=#98a2ae;" parent="1" source="XFLzxQZfM_v2sXhXUsD--51" target="XFLzxQZfM_v2sXhXUsD--37" edge="1">
            <mxGeometry relative="1" as="geometry">
              <mxPoint x="1582.5" y="1115.04" as="sourcePoint" />
              <mxPoint x="1583" y="1050.5" as="targetPoint" />
            </mxGeometry>
          </mxCell>
        </object>
        <mxCell id="XFLzxQZfM_v2sXhXUsD--48" value="" style="endArrow=none;jumpStyle=gap;entryY=1;exitY=0;entryX=0.5;exitX=0.5;exitDx=0;exitDy=0;entryDx=0;entryDy=0;fontFamily=Google Sans;fontSource=https%3A%2F%2Ffonts.googleapis.com%2Fcss%3Ffamily%3DGoogle%2BSans;strokeColor=#98a2ae;" parent="1" source="XFLzxQZfM_v2sXhXUsD--43" target="XFLzxQZfM_v2sXhXUsD--49" edge="1">
          <mxGeometry relative="1" as="geometry">
            <mxPoint x="1583" y="1114.5" as="sourcePoint" />
            <mxPoint x="1583" y="1050.5" as="targetPoint" />
          </mxGeometry>
        </mxCell>
        <mxCell id="XFLzxQZfM_v2sXhXUsD--49" value="eth1" style="rounded=1;whiteSpace=wrap;html=1;fontFamily=Google Sans;fontSource=https%3A%2F%2Ffonts.googleapis.com%2Fcss%3Ffamily%3DGoogle%2BSans;arcSize=32;spacing=0;spacingBottom=1;fillColor=#f5f5f5;fontColor=#333333;strokeColor=#98A2AE;fontSize=10;" parent="1" vertex="1">
          <mxGeometry x="1570" y="1092.5" width="25" height="13" as="geometry" />
        </mxCell>
        <mxCell id="XFLzxQZfM_v2sXhXUsD--50" value="" style="endArrow=none;jumpStyle=gap;entryY=1;exitY=0;entryX=0.5;exitX=0.5;exitDx=0;exitDy=0;entryDx=0;entryDy=0;fontFamily=Google Sans;fontSource=https%3A%2F%2Ffonts.googleapis.com%2Fcss%3Ffamily%3DGoogle%2BSans;strokeColor=#98a2ae;" parent="1" source="XFLzxQZfM_v2sXhXUsD--49" target="XFLzxQZfM_v2sXhXUsD--51" edge="1">
          <mxGeometry relative="1" as="geometry">
            <mxPoint x="1583" y="1092.5" as="sourcePoint" />
            <mxPoint x="1582" y="1050.5" as="targetPoint" />
          </mxGeometry>
        </mxCell>
        <mxCell id="XFLzxQZfM_v2sXhXUsD--51" value="e1-1" style="rounded=1;whiteSpace=wrap;html=1;fontFamily=Google Sans;fontSource=https%3A%2F%2Ffonts.googleapis.com%2Fcss%3Ffamily%3DGoogle%2BSans;arcSize=32;spacing=0;spacingBottom=1;fillColor=#f5f5f5;fontColor=#333333;strokeColor=#98A2AE;fontSize=10;align=center;verticalAlign=middle;" parent="1" vertex="1">
          <mxGeometry x="1570" y="1057.5" width="25" height="13" as="geometry" />
        </mxCell>
        <mxCell id="XFLzxQZfM_v2sXhXUsD--55" value="" style="group;fontStyle=1" parent="1" vertex="1" connectable="0">
          <mxGeometry x="1089" y="975.04" width="101" height="75" as="geometry" />
        </mxCell>
        <mxCell id="XFLzxQZfM_v2sXhXUsD--8" value="" style="group;aspect=fixed;fontStyle=1" parent="XFLzxQZfM_v2sXhXUsD--55" vertex="1" connectable="0">
          <mxGeometry x="26" width="75" height="75" as="geometry" />
        </mxCell>
        <mxCell id="XFLzxQZfM_v2sXhXUsD--2" value="" style="whiteSpace=wrap;html=1;aspect=fixed;fillColor=#001135;strokeColor=none;connectable=1;allowArrows=1;fontStyle=1" parent="XFLzxQZfM_v2sXhXUsD--8" vertex="1">
          <mxGeometry width="75" height="75" as="geometry" />
        </mxCell>
        <mxCell id="XFLzxQZfM_v2sXhXUsD--3" value="" style="endArrow=open;html=1;edgeStyle=orthogonalEdgeStyle;rounded=0;endFill=0;startSize=6;endSize=6;strokeColor=#FFFFFF;strokeWidth=2;fontStyle=1" parent="XFLzxQZfM_v2sXhXUsD--8" edge="1">
          <mxGeometry width="50" height="50" relative="1" as="geometry">
            <mxPoint x="7.5" y="30" as="sourcePoint" />
            <mxPoint x="27.499999999999996" y="7.5" as="targetPoint" />
            <Array as="points">
              <mxPoint x="27.499999999999996" y="30" />
            </Array>
          </mxGeometry>
        </mxCell>
        <mxCell id="XFLzxQZfM_v2sXhXUsD--4" value="" style="endArrow=open;html=1;edgeStyle=orthogonalEdgeStyle;rounded=0;endFill=0;startSize=6;endSize=6;strokeColor=#FFFFFF;strokeWidth=2;fontStyle=1" parent="XFLzxQZfM_v2sXhXUsD--8" edge="1">
          <mxGeometry width="50" height="50" relative="1" as="geometry">
            <mxPoint x="27.499999999999996" y="67.5" as="sourcePoint" />
            <mxPoint x="7.5" y="47.49999999999999" as="targetPoint" />
            <Array as="points">
              <mxPoint x="27.499999999999996" y="47.49999999999999" />
            </Array>
          </mxGeometry>
        </mxCell>
        <mxCell id="XFLzxQZfM_v2sXhXUsD--5" value="" style="endArrow=open;html=1;edgeStyle=orthogonalEdgeStyle;rounded=0;endFill=0;startSize=6;endSize=6;strokeColor=#FFFFFF;strokeWidth=2;fontStyle=1" parent="XFLzxQZfM_v2sXhXUsD--8" edge="1">
          <mxGeometry width="50" height="50" relative="1" as="geometry">
            <mxPoint x="44.99999999999999" y="7.5" as="sourcePoint" />
            <mxPoint x="67.5" y="30" as="targetPoint" />
            <Array as="points">
              <mxPoint x="44.99999999999999" y="30" />
            </Array>
          </mxGeometry>
        </mxCell>
        <mxCell id="XFLzxQZfM_v2sXhXUsD--6" value="" style="endArrow=open;html=1;edgeStyle=orthogonalEdgeStyle;rounded=0;endFill=0;startSize=6;endSize=6;strokeColor=#FFFFFF;strokeWidth=2;fontStyle=1" parent="XFLzxQZfM_v2sXhXUsD--8" edge="1">
          <mxGeometry width="50" height="50" relative="1" as="geometry">
            <mxPoint x="67.5" y="47.49999999999999" as="sourcePoint" />
            <mxPoint x="44.99999999999999" y="67.5" as="targetPoint" />
            <Array as="points">
              <mxPoint x="44.99999999999999" y="47.49999999999999" />
            </Array>
          </mxGeometry>
        </mxCell>
        <mxCell id="XFLzxQZfM_v2sXhXUsD--54" value="leaf1-dc1" style="text;html=1;align=center;verticalAlign=middle;resizable=0;points=[];autosize=1;strokeColor=none;fillColor=none;fontFamily=Google Sans;fontSource=https%3A%2F%2Ffonts.googleapis.com%2Fcss%3Ffamily%3DGoogle%2BSans;fontColor=#FFFFFF;rotation=-90;fontStyle=1" parent="XFLzxQZfM_v2sXhXUsD--55" vertex="1">
          <mxGeometry x="-20" y="24.500000000000057" width="66" height="26" as="geometry" />
        </mxCell>
        <mxCell id="XFLzxQZfM_v2sXhXUsD--58" value="" style="group;fontStyle=1" parent="1" vertex="1" connectable="0">
          <mxGeometry x="1380" y="975.04" width="101" height="75" as="geometry" />
        </mxCell>
        <mxCell id="XFLzxQZfM_v2sXhXUsD--30" value="" style="group;aspect=fixed;fontStyle=1" parent="XFLzxQZfM_v2sXhXUsD--58" vertex="1" connectable="0">
          <mxGeometry x="26" width="75" height="75" as="geometry" />
        </mxCell>
        <mxCell id="XFLzxQZfM_v2sXhXUsD--31" value="" style="whiteSpace=wrap;html=1;aspect=fixed;fillColor=#001135;strokeColor=none;connectable=1;allowArrows=1;fontStyle=1" parent="XFLzxQZfM_v2sXhXUsD--30" vertex="1">
          <mxGeometry width="75" height="75" as="geometry" />
        </mxCell>
        <mxCell id="XFLzxQZfM_v2sXhXUsD--32" value="" style="endArrow=open;html=1;edgeStyle=orthogonalEdgeStyle;rounded=0;endFill=0;startSize=6;endSize=6;strokeColor=#FFFFFF;strokeWidth=2;fontStyle=1" parent="XFLzxQZfM_v2sXhXUsD--30" edge="1">
          <mxGeometry width="50" height="50" relative="1" as="geometry">
            <mxPoint x="7.5" y="30" as="sourcePoint" />
            <mxPoint x="27.499999999999996" y="7.5" as="targetPoint" />
            <Array as="points">
              <mxPoint x="27.499999999999996" y="30" />
            </Array>
          </mxGeometry>
        </mxCell>
        <mxCell id="XFLzxQZfM_v2sXhXUsD--33" value="" style="endArrow=open;html=1;edgeStyle=orthogonalEdgeStyle;rounded=0;endFill=0;startSize=6;endSize=6;strokeColor=#FFFFFF;strokeWidth=2;fontStyle=1" parent="XFLzxQZfM_v2sXhXUsD--30" edge="1">
          <mxGeometry width="50" height="50" relative="1" as="geometry">
            <mxPoint x="27.499999999999996" y="67.5" as="sourcePoint" />
            <mxPoint x="7.5" y="47.49999999999999" as="targetPoint" />
            <Array as="points">
              <mxPoint x="27.499999999999996" y="47.49999999999999" />
            </Array>
          </mxGeometry>
        </mxCell>
        <mxCell id="XFLzxQZfM_v2sXhXUsD--34" value="" style="endArrow=open;html=1;edgeStyle=orthogonalEdgeStyle;rounded=0;endFill=0;startSize=6;endSize=6;strokeColor=#FFFFFF;strokeWidth=2;fontStyle=1" parent="XFLzxQZfM_v2sXhXUsD--30" edge="1">
          <mxGeometry width="50" height="50" relative="1" as="geometry">
            <mxPoint x="44.99999999999999" y="7.5" as="sourcePoint" />
            <mxPoint x="67.5" y="30" as="targetPoint" />
            <Array as="points">
              <mxPoint x="44.99999999999999" y="30" />
            </Array>
          </mxGeometry>
        </mxCell>
        <mxCell id="XFLzxQZfM_v2sXhXUsD--35" value="" style="endArrow=open;html=1;edgeStyle=orthogonalEdgeStyle;rounded=0;endFill=0;startSize=6;endSize=6;strokeColor=#FFFFFF;strokeWidth=2;fontStyle=1" parent="XFLzxQZfM_v2sXhXUsD--30" edge="1">
          <mxGeometry width="50" height="50" relative="1" as="geometry">
            <mxPoint x="67.5" y="47.49999999999999" as="sourcePoint" />
            <mxPoint x="44.99999999999999" y="67.5" as="targetPoint" />
            <Array as="points">
              <mxPoint x="44.99999999999999" y="47.49999999999999" />
            </Array>
          </mxGeometry>
        </mxCell>
        <mxCell id="XFLzxQZfM_v2sXhXUsD--57" value="leaf3-dc1" style="text;html=1;align=center;verticalAlign=middle;resizable=0;points=[];autosize=1;strokeColor=none;fillColor=none;fontFamily=Google Sans;fontSource=https%3A%2F%2Ffonts.googleapis.com%2Fcss%3Ffamily%3DGoogle%2BSans;fontColor=#FFFFFF;rotation=-90;fontStyle=1" parent="XFLzxQZfM_v2sXhXUsD--58" vertex="1">
          <mxGeometry x="-21" y="24.5" width="68" height="26" as="geometry" />
        </mxCell>
        <mxCell id="XFLzxQZfM_v2sXhXUsD--59" value="" style="group;fontStyle=1" parent="1" vertex="1" connectable="0">
          <mxGeometry x="1229" y="975.04" width="101" height="75" as="geometry" />
        </mxCell>
        <mxCell id="XFLzxQZfM_v2sXhXUsD--24" value="" style="group;aspect=fixed;fontStyle=1" parent="XFLzxQZfM_v2sXhXUsD--59" vertex="1" connectable="0">
          <mxGeometry x="26" width="75" height="75" as="geometry" />
        </mxCell>
        <mxCell id="XFLzxQZfM_v2sXhXUsD--25" value="" style="whiteSpace=wrap;html=1;aspect=fixed;fillColor=#001135;strokeColor=none;connectable=1;allowArrows=1;fontStyle=1" parent="XFLzxQZfM_v2sXhXUsD--24" vertex="1">
          <mxGeometry width="75" height="75" as="geometry" />
        </mxCell>
        <mxCell id="XFLzxQZfM_v2sXhXUsD--26" value="" style="endArrow=open;html=1;edgeStyle=orthogonalEdgeStyle;rounded=0;endFill=0;startSize=6;endSize=6;strokeColor=#FFFFFF;strokeWidth=2;fontStyle=1" parent="XFLzxQZfM_v2sXhXUsD--24" edge="1">
          <mxGeometry width="50" height="50" relative="1" as="geometry">
            <mxPoint x="7.5" y="30" as="sourcePoint" />
            <mxPoint x="27.499999999999996" y="7.5" as="targetPoint" />
            <Array as="points">
              <mxPoint x="27.499999999999996" y="30" />
            </Array>
          </mxGeometry>
        </mxCell>
        <mxCell id="XFLzxQZfM_v2sXhXUsD--27" value="" style="endArrow=open;html=1;edgeStyle=orthogonalEdgeStyle;rounded=0;endFill=0;startSize=6;endSize=6;strokeColor=#FFFFFF;strokeWidth=2;fontStyle=1" parent="XFLzxQZfM_v2sXhXUsD--24" edge="1">
          <mxGeometry width="50" height="50" relative="1" as="geometry">
            <mxPoint x="27.499999999999996" y="67.5" as="sourcePoint" />
            <mxPoint x="7.5" y="47.49999999999999" as="targetPoint" />
            <Array as="points">
              <mxPoint x="27.499999999999996" y="47.49999999999999" />
            </Array>
          </mxGeometry>
        </mxCell>
        <mxCell id="XFLzxQZfM_v2sXhXUsD--28" value="" style="endArrow=open;html=1;edgeStyle=orthogonalEdgeStyle;rounded=0;endFill=0;startSize=6;endSize=6;strokeColor=#FFFFFF;strokeWidth=2;fontStyle=1" parent="XFLzxQZfM_v2sXhXUsD--24" edge="1">
          <mxGeometry width="50" height="50" relative="1" as="geometry">
            <mxPoint x="44.99999999999999" y="7.5" as="sourcePoint" />
            <mxPoint x="67.5" y="30" as="targetPoint" />
            <Array as="points">
              <mxPoint x="44.99999999999999" y="30" />
            </Array>
          </mxGeometry>
        </mxCell>
        <mxCell id="XFLzxQZfM_v2sXhXUsD--29" value="" style="endArrow=open;html=1;edgeStyle=orthogonalEdgeStyle;rounded=0;endFill=0;startSize=6;endSize=6;strokeColor=#FFFFFF;strokeWidth=2;fontStyle=1" parent="XFLzxQZfM_v2sXhXUsD--24" edge="1">
          <mxGeometry width="50" height="50" relative="1" as="geometry">
            <mxPoint x="67.5" y="47.49999999999999" as="sourcePoint" />
            <mxPoint x="44.99999999999999" y="67.5" as="targetPoint" />
            <Array as="points">
              <mxPoint x="44.99999999999999" y="47.49999999999999" />
            </Array>
          </mxGeometry>
        </mxCell>
        <mxCell id="XFLzxQZfM_v2sXhXUsD--56" value="leaf2-dc1" style="text;html=1;align=center;verticalAlign=middle;resizable=0;points=[];autosize=1;strokeColor=none;fillColor=none;fontFamily=Google Sans;fontSource=https%3A%2F%2Ffonts.googleapis.com%2Fcss%3Ffamily%3DGoogle%2BSans;fontColor=#FFFFFF;rotation=-90;fontStyle=1" parent="XFLzxQZfM_v2sXhXUsD--59" vertex="1">
          <mxGeometry x="-21" y="24.500000000000057" width="68" height="26" as="geometry" />
        </mxCell>
        <mxCell id="XFLzxQZfM_v2sXhXUsD--61" value="" style="group;fontStyle=1" parent="1" vertex="1" connectable="0">
          <mxGeometry x="1519.5" y="975.04" width="100.5" height="75" as="geometry" />
        </mxCell>
        <mxCell id="XFLzxQZfM_v2sXhXUsD--36" value="" style="group;aspect=fixed;fontStyle=1" parent="XFLzxQZfM_v2sXhXUsD--61" vertex="1" connectable="0">
          <mxGeometry x="25.5" width="75" height="75" as="geometry" />
        </mxCell>
        <mxCell id="XFLzxQZfM_v2sXhXUsD--37" value="" style="whiteSpace=wrap;html=1;aspect=fixed;fillColor=#001135;strokeColor=none;connectable=1;allowArrows=1;fontStyle=1" parent="XFLzxQZfM_v2sXhXUsD--36" vertex="1">
          <mxGeometry width="75" height="75" as="geometry" />
        </mxCell>
        <mxCell id="XFLzxQZfM_v2sXhXUsD--38" value="" style="endArrow=open;html=1;edgeStyle=orthogonalEdgeStyle;rounded=0;endFill=0;startSize=6;endSize=6;strokeColor=#FFFFFF;strokeWidth=2;fontStyle=1" parent="XFLzxQZfM_v2sXhXUsD--36" edge="1">
          <mxGeometry width="50" height="50" relative="1" as="geometry">
            <mxPoint x="7.5" y="30" as="sourcePoint" />
            <mxPoint x="27.499999999999996" y="7.5" as="targetPoint" />
            <Array as="points">
              <mxPoint x="27.499999999999996" y="30" />
            </Array>
          </mxGeometry>
        </mxCell>
        <mxCell id="XFLzxQZfM_v2sXhXUsD--39" value="" style="endArrow=open;html=1;edgeStyle=orthogonalEdgeStyle;rounded=0;endFill=0;startSize=6;endSize=6;strokeColor=#FFFFFF;strokeWidth=2;fontStyle=1" parent="XFLzxQZfM_v2sXhXUsD--36" edge="1">
          <mxGeometry width="50" height="50" relative="1" as="geometry">
            <mxPoint x="27.499999999999996" y="67.5" as="sourcePoint" />
            <mxPoint x="7.5" y="47.49999999999999" as="targetPoint" />
            <Array as="points">
              <mxPoint x="27.499999999999996" y="47.49999999999999" />
            </Array>
          </mxGeometry>
        </mxCell>
        <mxCell id="XFLzxQZfM_v2sXhXUsD--40" value="" style="endArrow=open;html=1;edgeStyle=orthogonalEdgeStyle;rounded=0;endFill=0;startSize=6;endSize=6;strokeColor=#FFFFFF;strokeWidth=2;fontStyle=1" parent="XFLzxQZfM_v2sXhXUsD--36" edge="1">
          <mxGeometry width="50" height="50" relative="1" as="geometry">
            <mxPoint x="44.99999999999999" y="7.5" as="sourcePoint" />
            <mxPoint x="67.5" y="30" as="targetPoint" />
            <Array as="points">
              <mxPoint x="44.99999999999999" y="30" />
            </Array>
          </mxGeometry>
        </mxCell>
        <mxCell id="XFLzxQZfM_v2sXhXUsD--41" value="" style="endArrow=open;html=1;edgeStyle=orthogonalEdgeStyle;rounded=0;endFill=0;startSize=6;endSize=6;strokeColor=#FFFFFF;strokeWidth=2;fontStyle=1" parent="XFLzxQZfM_v2sXhXUsD--36" edge="1">
          <mxGeometry width="50" height="50" relative="1" as="geometry">
            <mxPoint x="67.5" y="47.49999999999999" as="sourcePoint" />
            <mxPoint x="44.99999999999999" y="67.5" as="targetPoint" />
            <Array as="points">
              <mxPoint x="44.99999999999999" y="47.49999999999999" />
            </Array>
          </mxGeometry>
        </mxCell>
        <mxCell id="XFLzxQZfM_v2sXhXUsD--60" value="leaf4-dc1" style="text;html=1;align=center;verticalAlign=middle;resizable=0;points=[];autosize=1;strokeColor=none;fillColor=none;fontFamily=Google Sans;fontSource=https%3A%2F%2Ffonts.googleapis.com%2Fcss%3Ffamily%3DGoogle%2BSans;fontColor=#FFFFFF;rotation=-90;fontStyle=1" parent="XFLzxQZfM_v2sXhXUsD--61" vertex="1">
          <mxGeometry x="-21.5" y="24.5" width="69" height="26" as="geometry" />
        </mxCell>
        <mxCell id="XFLzxQZfM_v2sXhXUsD--62" value="" style="group" parent="1" vertex="1" connectable="0">
          <mxGeometry x="1114.755" y="1114.5" width="75.49000000000001" height="101" as="geometry" />
        </mxCell>
        <mxCell id="XFLzxQZfM_v2sXhXUsD--9" value="" style="group;aspect=fixed;" parent="XFLzxQZfM_v2sXhXUsD--62" vertex="1" connectable="0">
          <mxGeometry width="75.49000000000001" height="75" as="geometry" />
        </mxCell>
        <mxCell id="XFLzxQZfM_v2sXhXUsD--10" value="" style="whiteSpace=wrap;html=1;aspect=fixed;fillColor=#001135;strokeColor=none;connectable=1;allowArrows=1;" parent="XFLzxQZfM_v2sXhXUsD--9" vertex="1">
          <mxGeometry x="0.24500000000000455" width="75" height="75" as="geometry" />
        </mxCell>
        <mxCell id="XFLzxQZfM_v2sXhXUsD--17" value="" style="endArrow=none;html=1;rounded=0;entryX=0.907;entryY=0.793;entryDx=0;entryDy=0;entryPerimeter=0;exitX=0.08;exitY=0.793;exitDx=0;exitDy=0;exitPerimeter=0;strokeColor=#FFFFFF;strokeWidth=2;" parent="XFLzxQZfM_v2sXhXUsD--9" edge="1">
          <mxGeometry width="50" height="50" relative="1" as="geometry">
            <mxPoint x="6.490000000000009" y="60.23500000000013" as="sourcePoint" />
            <mxPoint x="68.5150000000001" y="60.23500000000013" as="targetPoint" />
          </mxGeometry>
        </mxCell>
        <mxCell id="XFLzxQZfM_v2sXhXUsD--15" value="" style="rounded=1;whiteSpace=wrap;html=1;arcSize=14;fillColor=none;strokeColor=#FFFFFF;strokeWidth=2;" parent="XFLzxQZfM_v2sXhXUsD--9" vertex="1">
          <mxGeometry x="12.245000000000005" y="15.760000000000048" width="51" height="38.46" as="geometry" />
        </mxCell>
        <mxCell id="XFLzxQZfM_v2sXhXUsD--16" value="" style="ellipse;whiteSpace=wrap;html=1;aspect=fixed;strokeColor=none;" parent="XFLzxQZfM_v2sXhXUsD--9" vertex="1">
          <mxGeometry x="36.245000000000005" y="21.220000000000027" width="3" height="3" as="geometry" />
        </mxCell>
        <mxCell id="XFLzxQZfM_v2sXhXUsD--52" value="client1-dc1" style="text;html=1;align=center;verticalAlign=middle;resizable=0;points=[];autosize=1;strokeColor=none;fillColor=none;fontFamily=Google Sans;fontSource=https%3A%2F%2Ffonts.googleapis.com%2Fcss%3Ffamily%3DGoogle%2BSans;fontColor=#FFFFFF;fontStyle=1" parent="XFLzxQZfM_v2sXhXUsD--62" vertex="1">
          <mxGeometry x="0.24500000000000455" y="75" width="75" height="26" as="geometry" />
        </mxCell>
        <mxCell id="XFLzxQZfM_v2sXhXUsD--63" value="" style="group" parent="1" vertex="1" connectable="0">
          <mxGeometry x="1544" y="1114.5" width="77" height="101" as="geometry" />
        </mxCell>
        <mxCell id="XFLzxQZfM_v2sXhXUsD--42" value="" style="group;aspect=fixed;" parent="XFLzxQZfM_v2sXhXUsD--63" vertex="1" connectable="0">
          <mxGeometry x="0.7549999999999955" width="75.49000000000001" height="75" as="geometry" />
        </mxCell>
        <mxCell id="XFLzxQZfM_v2sXhXUsD--43" value="" style="whiteSpace=wrap;html=1;aspect=fixed;fillColor=#001135;strokeColor=none;connectable=1;allowArrows=1;" parent="XFLzxQZfM_v2sXhXUsD--42" vertex="1">
          <mxGeometry x="0.24500000000000455" width="75" height="75" as="geometry" />
        </mxCell>
        <mxCell id="XFLzxQZfM_v2sXhXUsD--44" value="" style="endArrow=none;html=1;rounded=0;entryX=0.907;entryY=0.793;entryDx=0;entryDy=0;entryPerimeter=0;exitX=0.08;exitY=0.793;exitDx=0;exitDy=0;exitPerimeter=0;strokeColor=#FFFFFF;strokeWidth=2;" parent="XFLzxQZfM_v2sXhXUsD--42" edge="1">
          <mxGeometry width="50" height="50" relative="1" as="geometry">
            <mxPoint x="6.490000000000009" y="60.23500000000013" as="sourcePoint" />
            <mxPoint x="68.5150000000001" y="60.23500000000013" as="targetPoint" />
          </mxGeometry>
        </mxCell>
        <mxCell id="XFLzxQZfM_v2sXhXUsD--45" value="" style="rounded=1;whiteSpace=wrap;html=1;arcSize=14;fillColor=none;strokeColor=#FFFFFF;strokeWidth=2;" parent="XFLzxQZfM_v2sXhXUsD--42" vertex="1">
          <mxGeometry x="12.245000000000005" y="15.760000000000048" width="51" height="38.46" as="geometry" />
        </mxCell>
        <mxCell id="XFLzxQZfM_v2sXhXUsD--46" value="" style="ellipse;whiteSpace=wrap;html=1;aspect=fixed;strokeColor=none;" parent="XFLzxQZfM_v2sXhXUsD--42" vertex="1">
          <mxGeometry x="36.245000000000005" y="21.220000000000027" width="3" height="3" as="geometry" />
        </mxCell>
        <mxCell id="XFLzxQZfM_v2sXhXUsD--53" value="client2-dc1" style="text;html=1;align=center;verticalAlign=middle;resizable=0;points=[];autosize=1;strokeColor=none;fillColor=none;fontFamily=Google Sans;fontSource=https%3A%2F%2Ffonts.googleapis.com%2Fcss%3Ffamily%3DGoogle%2BSans;fontColor=#FFFFFF;fontStyle=1" parent="XFLzxQZfM_v2sXhXUsD--63" vertex="1">
          <mxGeometry y="75" width="77" height="26" as="geometry" />
        </mxCell>
        <mxCell id="XFLzxQZfM_v2sXhXUsD--64" value="e1-31" style="rounded=1;whiteSpace=wrap;html=1;fontFamily=Google Sans;fontSource=https%3A%2F%2Ffonts.googleapis.com%2Fcss%3Ffamily%3DGoogle%2BSans;arcSize=32;spacing=0;spacingBottom=1;fillColor=#f5f5f5;fontColor=#333333;strokeColor=#98A2AE;fontSize=10;" parent="1" vertex="1">
          <mxGeometry x="1178" y="931.5" width="25" height="13" as="geometry" />
        </mxCell>
        <mxCell id="XFLzxQZfM_v2sXhXUsD--67" value="e1-32" style="rounded=1;whiteSpace=wrap;html=1;fontFamily=Google Sans;fontSource=https%3A%2F%2Ffonts.googleapis.com%2Fcss%3Ffamily%3DGoogle%2BSans;arcSize=32;spacing=0;spacingBottom=1;fillColor=#f5f5f5;fontColor=#333333;strokeColor=#98A2AE;fontSize=10;" parent="1" vertex="1">
          <mxGeometry x="1212" y="931.5" width="25" height="13" as="geometry" />
        </mxCell>
        <mxCell id="XFLzxQZfM_v2sXhXUsD--68" value="e1-31" style="rounded=1;whiteSpace=wrap;html=1;fontFamily=Google Sans;fontSource=https%3A%2F%2Ffonts.googleapis.com%2Fcss%3Ffamily%3DGoogle%2BSans;arcSize=32;spacing=0;spacingBottom=1;fillColor=#f5f5f5;fontColor=#333333;strokeColor=#98A2AE;fontSize=10;" parent="1" vertex="1">
          <mxGeometry x="1286" y="931.5" width="25" height="13" as="geometry" />
        </mxCell>
        <mxCell id="XFLzxQZfM_v2sXhXUsD--69" value="e1-32" style="rounded=1;whiteSpace=wrap;html=1;fontFamily=Google Sans;fontSource=https%3A%2F%2Ffonts.googleapis.com%2Fcss%3Ffamily%3DGoogle%2BSans;arcSize=32;spacing=0;spacingBottom=1;fillColor=#f5f5f5;fontColor=#333333;strokeColor=#98A2AE;fontSize=10;" parent="1" vertex="1">
          <mxGeometry x="1320" y="931.5" width="25" height="13" as="geometry" />
        </mxCell>
        <mxCell id="XFLzxQZfM_v2sXhXUsD--70" value="e1-31" style="rounded=1;whiteSpace=wrap;html=1;fontFamily=Google Sans;fontSource=https%3A%2F%2Ffonts.googleapis.com%2Fcss%3Ffamily%3DGoogle%2BSans;arcSize=32;spacing=0;spacingBottom=1;fillColor=#f5f5f5;fontColor=#333333;strokeColor=#98A2AE;fontSize=10;" parent="1" vertex="1">
          <mxGeometry x="1401" y="931.5" width="25" height="13" as="geometry" />
        </mxCell>
        <mxCell id="XFLzxQZfM_v2sXhXUsD--71" value="e1-32" style="rounded=1;whiteSpace=wrap;html=1;fontFamily=Google Sans;fontSource=https%3A%2F%2Ffonts.googleapis.com%2Fcss%3Ffamily%3DGoogle%2BSans;arcSize=32;spacing=0;spacingBottom=1;fillColor=#f5f5f5;fontColor=#333333;strokeColor=#98A2AE;fontSize=10;" parent="1" vertex="1">
          <mxGeometry x="1435" y="931.5" width="25" height="13" as="geometry" />
        </mxCell>
        <mxCell id="XFLzxQZfM_v2sXhXUsD--72" value="e1-31" style="rounded=1;whiteSpace=wrap;html=1;fontFamily=Google Sans;fontSource=https%3A%2F%2Ffonts.googleapis.com%2Fcss%3Ffamily%3DGoogle%2BSans;arcSize=32;spacing=0;spacingBottom=1;fillColor=#f5f5f5;fontColor=#333333;strokeColor=#98A2AE;fontSize=10;" parent="1" vertex="1">
          <mxGeometry x="1504" y="931.5" width="25" height="13" as="geometry" />
        </mxCell>
        <mxCell id="XFLzxQZfM_v2sXhXUsD--73" value="e1-32" style="rounded=1;whiteSpace=wrap;html=1;fontFamily=Google Sans;fontSource=https%3A%2F%2Ffonts.googleapis.com%2Fcss%3Ffamily%3DGoogle%2BSans;arcSize=32;spacing=0;spacingBottom=1;fillColor=#f5f5f5;fontColor=#333333;strokeColor=#98A2AE;fontSize=10;" parent="1" vertex="1">
          <mxGeometry x="1538" y="931.5" width="25" height="13" as="geometry" />
        </mxCell>
        <mxCell id="XFLzxQZfM_v2sXhXUsD--74" value="" style="group;fontStyle=1" parent="1" vertex="1" connectable="0">
          <mxGeometry x="1252" y="745.5" width="101" height="75" as="geometry" />
        </mxCell>
        <mxCell id="XFLzxQZfM_v2sXhXUsD--75" value="" style="group;aspect=fixed;fontStyle=1" parent="XFLzxQZfM_v2sXhXUsD--74" vertex="1" connectable="0">
          <mxGeometry x="26" width="75" height="75" as="geometry" />
        </mxCell>
        <mxCell id="XFLzxQZfM_v2sXhXUsD--76" value="" style="whiteSpace=wrap;html=1;aspect=fixed;fillColor=#001135;strokeColor=none;connectable=1;allowArrows=1;fontStyle=1" parent="XFLzxQZfM_v2sXhXUsD--75" vertex="1">
          <mxGeometry width="75" height="75" as="geometry" />
        </mxCell>
        <mxCell id="XFLzxQZfM_v2sXhXUsD--77" value="" style="endArrow=open;html=1;edgeStyle=orthogonalEdgeStyle;rounded=0;endFill=0;startSize=6;endSize=6;strokeColor=#FFFFFF;strokeWidth=2;fontStyle=1" parent="XFLzxQZfM_v2sXhXUsD--75" edge="1">
          <mxGeometry width="50" height="50" relative="1" as="geometry">
            <mxPoint x="7.5" y="30" as="sourcePoint" />
            <mxPoint x="27.499999999999996" y="7.5" as="targetPoint" />
            <Array as="points">
              <mxPoint x="27.499999999999996" y="30" />
            </Array>
          </mxGeometry>
        </mxCell>
        <mxCell id="XFLzxQZfM_v2sXhXUsD--78" value="" style="endArrow=open;html=1;edgeStyle=orthogonalEdgeStyle;rounded=0;endFill=0;startSize=6;endSize=6;strokeColor=#FFFFFF;strokeWidth=2;fontStyle=1" parent="XFLzxQZfM_v2sXhXUsD--75" edge="1">
          <mxGeometry width="50" height="50" relative="1" as="geometry">
            <mxPoint x="27.499999999999996" y="67.5" as="sourcePoint" />
            <mxPoint x="7.5" y="47.49999999999999" as="targetPoint" />
            <Array as="points">
              <mxPoint x="27.499999999999996" y="47.49999999999999" />
            </Array>
          </mxGeometry>
        </mxCell>
        <mxCell id="XFLzxQZfM_v2sXhXUsD--79" value="" style="endArrow=open;html=1;edgeStyle=orthogonalEdgeStyle;rounded=0;endFill=0;startSize=6;endSize=6;strokeColor=#FFFFFF;strokeWidth=2;fontStyle=1" parent="XFLzxQZfM_v2sXhXUsD--75" edge="1">
          <mxGeometry width="50" height="50" relative="1" as="geometry">
            <mxPoint x="44.99999999999999" y="7.5" as="sourcePoint" />
            <mxPoint x="67.5" y="30" as="targetPoint" />
            <Array as="points">
              <mxPoint x="44.99999999999999" y="30" />
            </Array>
          </mxGeometry>
        </mxCell>
        <mxCell id="XFLzxQZfM_v2sXhXUsD--80" value="" style="endArrow=open;html=1;edgeStyle=orthogonalEdgeStyle;rounded=0;endFill=0;startSize=6;endSize=6;strokeColor=#FFFFFF;strokeWidth=2;fontStyle=1" parent="XFLzxQZfM_v2sXhXUsD--75" edge="1">
          <mxGeometry width="50" height="50" relative="1" as="geometry">
            <mxPoint x="67.5" y="47.49999999999999" as="sourcePoint" />
            <mxPoint x="44.99999999999999" y="67.5" as="targetPoint" />
            <Array as="points">
              <mxPoint x="44.99999999999999" y="47.49999999999999" />
            </Array>
          </mxGeometry>
        </mxCell>
        <mxCell id="XFLzxQZfM_v2sXhXUsD--81" value="spine1-dc1" style="text;html=1;align=center;verticalAlign=middle;resizable=0;points=[];autosize=1;strokeColor=none;fillColor=none;fontFamily=Google Sans;fontSource=https%3A%2F%2Ffonts.googleapis.com%2Fcss%3Ffamily%3DGoogle%2BSans;fontColor=#FFFFFF;rotation=-90;fontStyle=1" parent="XFLzxQZfM_v2sXhXUsD--74" vertex="1">
          <mxGeometry x="-24" y="24.500000000000057" width="75" height="26" as="geometry" />
        </mxCell>
        <mxCell id="XFLzxQZfM_v2sXhXUsD--82" value="" style="group;fontStyle=1" parent="1" vertex="1" connectable="0">
          <mxGeometry x="1389" y="745.5" width="101" height="75" as="geometry" />
        </mxCell>
        <mxCell id="XFLzxQZfM_v2sXhXUsD--83" value="" style="group;aspect=fixed;fontStyle=1" parent="XFLzxQZfM_v2sXhXUsD--82" vertex="1" connectable="0">
          <mxGeometry x="26" width="75" height="75" as="geometry" />
        </mxCell>
        <mxCell id="XFLzxQZfM_v2sXhXUsD--84" value="" style="whiteSpace=wrap;html=1;aspect=fixed;fillColor=#001135;strokeColor=none;connectable=1;allowArrows=1;fontStyle=1" parent="XFLzxQZfM_v2sXhXUsD--83" vertex="1">
          <mxGeometry width="75" height="75" as="geometry" />
        </mxCell>
        <mxCell id="XFLzxQZfM_v2sXhXUsD--85" value="" style="endArrow=open;html=1;edgeStyle=orthogonalEdgeStyle;rounded=0;endFill=0;startSize=6;endSize=6;strokeColor=#FFFFFF;strokeWidth=2;fontStyle=1" parent="XFLzxQZfM_v2sXhXUsD--83" edge="1">
          <mxGeometry width="50" height="50" relative="1" as="geometry">
            <mxPoint x="7.5" y="30" as="sourcePoint" />
            <mxPoint x="27.499999999999996" y="7.5" as="targetPoint" />
            <Array as="points">
              <mxPoint x="27.499999999999996" y="30" />
            </Array>
          </mxGeometry>
        </mxCell>
        <mxCell id="XFLzxQZfM_v2sXhXUsD--86" value="" style="endArrow=open;html=1;edgeStyle=orthogonalEdgeStyle;rounded=0;endFill=0;startSize=6;endSize=6;strokeColor=#FFFFFF;strokeWidth=2;fontStyle=1" parent="XFLzxQZfM_v2sXhXUsD--83" edge="1">
          <mxGeometry width="50" height="50" relative="1" as="geometry">
            <mxPoint x="27.499999999999996" y="67.5" as="sourcePoint" />
            <mxPoint x="7.5" y="47.49999999999999" as="targetPoint" />
            <Array as="points">
              <mxPoint x="27.499999999999996" y="47.49999999999999" />
            </Array>
          </mxGeometry>
        </mxCell>
        <mxCell id="XFLzxQZfM_v2sXhXUsD--87" value="" style="endArrow=open;html=1;edgeStyle=orthogonalEdgeStyle;rounded=0;endFill=0;startSize=6;endSize=6;strokeColor=#FFFFFF;strokeWidth=2;fontStyle=1" parent="XFLzxQZfM_v2sXhXUsD--83" edge="1">
          <mxGeometry width="50" height="50" relative="1" as="geometry">
            <mxPoint x="44.99999999999999" y="7.5" as="sourcePoint" />
            <mxPoint x="67.5" y="30" as="targetPoint" />
            <Array as="points">
              <mxPoint x="44.99999999999999" y="30" />
            </Array>
          </mxGeometry>
        </mxCell>
        <mxCell id="XFLzxQZfM_v2sXhXUsD--88" value="" style="endArrow=open;html=1;edgeStyle=orthogonalEdgeStyle;rounded=0;endFill=0;startSize=6;endSize=6;strokeColor=#FFFFFF;strokeWidth=2;fontStyle=1" parent="XFLzxQZfM_v2sXhXUsD--83" edge="1">
          <mxGeometry width="50" height="50" relative="1" as="geometry">
            <mxPoint x="67.5" y="47.49999999999999" as="sourcePoint" />
            <mxPoint x="44.99999999999999" y="67.5" as="targetPoint" />
            <Array as="points">
              <mxPoint x="44.99999999999999" y="47.49999999999999" />
            </Array>
          </mxGeometry>
        </mxCell>
        <mxCell id="XFLzxQZfM_v2sXhXUsD--89" value="spine2-dc1" style="text;html=1;align=center;verticalAlign=middle;resizable=0;points=[];autosize=1;strokeColor=none;fillColor=none;fontFamily=Google Sans;fontSource=https%3A%2F%2Ffonts.googleapis.com%2Fcss%3Ffamily%3DGoogle%2BSans;fontColor=#FFFFFF;rotation=-90;fontStyle=1" parent="XFLzxQZfM_v2sXhXUsD--82" vertex="1">
          <mxGeometry x="-25" y="24.500000000000057" width="77" height="26" as="geometry" />
        </mxCell>
        <mxCell id="XFLzxQZfM_v2sXhXUsD--90" value="e1-3" style="rounded=1;whiteSpace=wrap;html=1;fontFamily=Google Sans;fontSource=https%3A%2F%2Ffonts.googleapis.com%2Fcss%3Ffamily%3DGoogle%2BSans;arcSize=32;spacing=0;spacingBottom=1;fillColor=#f5f5f5;fontColor=#333333;strokeColor=#98A2AE;fontSize=10;" parent="1" vertex="1">
          <mxGeometry x="1271" y="839.5" width="25" height="13" as="geometry" />
        </mxCell>
        <mxCell id="XFLzxQZfM_v2sXhXUsD--92" value="e1-4" style="rounded=1;whiteSpace=wrap;html=1;fontFamily=Google Sans;fontSource=https%3A%2F%2Ffonts.googleapis.com%2Fcss%3Ffamily%3DGoogle%2BSans;arcSize=32;spacing=0;spacingBottom=1;fillColor=#f5f5f5;fontColor=#333333;strokeColor=#98A2AE;fontSize=10;" parent="1" vertex="1">
          <mxGeometry x="1295" y="854.5" width="25" height="13" as="geometry" />
        </mxCell>
        <mxCell id="XFLzxQZfM_v2sXhXUsD--93" value="e1-5" style="rounded=1;whiteSpace=wrap;html=1;fontFamily=Google Sans;fontSource=https%3A%2F%2Ffonts.googleapis.com%2Fcss%3Ffamily%3DGoogle%2BSans;arcSize=32;spacing=0;spacingBottom=1;fillColor=#f5f5f5;fontColor=#333333;strokeColor=#98A2AE;fontSize=10;" parent="1" vertex="1">
          <mxGeometry x="1335" y="854.5" width="25" height="13" as="geometry" />
        </mxCell>
        <mxCell id="XFLzxQZfM_v2sXhXUsD--94" value="e1-6" style="rounded=1;whiteSpace=wrap;html=1;fontFamily=Google Sans;fontSource=https%3A%2F%2Ffonts.googleapis.com%2Fcss%3Ffamily%3DGoogle%2BSans;arcSize=32;spacing=0;spacingBottom=1;fillColor=#f5f5f5;fontColor=#333333;strokeColor=#98A2AE;fontSize=10;" parent="1" vertex="1">
          <mxGeometry x="1342" y="836.5" width="25" height="13" as="geometry" />
        </mxCell>
        <mxCell id="XFLzxQZfM_v2sXhXUsD--96" value="e1-3" style="rounded=1;whiteSpace=wrap;html=1;fontFamily=Google Sans;fontSource=https%3A%2F%2Ffonts.googleapis.com%2Fcss%3Ffamily%3DGoogle%2BSans;arcSize=32;spacing=0;spacingBottom=1;fillColor=#f5f5f5;fontColor=#333333;strokeColor=#98A2AE;fontSize=10;" parent="1" vertex="1">
          <mxGeometry x="1387" y="839.5" width="25" height="13" as="geometry" />
        </mxCell>
        <mxCell id="XFLzxQZfM_v2sXhXUsD--97" value="e1-4" style="rounded=1;whiteSpace=wrap;html=1;fontFamily=Google Sans;fontSource=https%3A%2F%2Ffonts.googleapis.com%2Fcss%3Ffamily%3DGoogle%2BSans;arcSize=32;spacing=0;spacingBottom=1;fillColor=#f5f5f5;fontColor=#333333;strokeColor=#98A2AE;fontSize=10;" parent="1" vertex="1">
          <mxGeometry x="1401" y="854.5" width="25" height="13" as="geometry" />
        </mxCell>
        <mxCell id="XFLzxQZfM_v2sXhXUsD--98" value="e1-5" style="rounded=1;whiteSpace=wrap;html=1;fontFamily=Google Sans;fontSource=https%3A%2F%2Ffonts.googleapis.com%2Fcss%3Ffamily%3DGoogle%2BSans;arcSize=32;spacing=0;spacingBottom=1;fillColor=#f5f5f5;fontColor=#333333;strokeColor=#98A2AE;fontSize=10;" parent="1" vertex="1">
          <mxGeometry x="1436" y="854.5" width="25" height="13" as="geometry" />
        </mxCell>
        <mxCell id="XFLzxQZfM_v2sXhXUsD--99" value="e1-6" style="rounded=1;whiteSpace=wrap;html=1;fontFamily=Google Sans;fontSource=https%3A%2F%2Ffonts.googleapis.com%2Fcss%3Ffamily%3DGoogle%2BSans;arcSize=32;spacing=0;spacingBottom=1;fillColor=#f5f5f5;fontColor=#333333;strokeColor=#98A2AE;fontSize=10;" parent="1" vertex="1">
          <mxGeometry x="1461" y="839.5" width="25" height="13" as="geometry" />
        </mxCell>
        <mxCell id="XFLzxQZfM_v2sXhXUsD--125" value="" style="group;fontStyle=1" parent="1" vertex="1" connectable="0">
          <mxGeometry x="1250" y="533" width="101" height="76" as="geometry" />
        </mxCell>
        <mxCell id="XFLzxQZfM_v2sXhXUsD--116" value="" style="group;fontStyle=1" parent="XFLzxQZfM_v2sXhXUsD--125" vertex="1" connectable="0">
          <mxGeometry x="26" y="0.4999999999999716" width="75" height="75.00000000000006" as="geometry" />
        </mxCell>
        <mxCell id="XFLzxQZfM_v2sXhXUsD--105" value="" style="whiteSpace=wrap;html=1;aspect=fixed;fillColor=#124191;strokeColor=none;connectable=1;allowArrows=1;fontStyle=1" parent="XFLzxQZfM_v2sXhXUsD--116" vertex="1">
          <mxGeometry width="75" height="75" as="geometry" />
        </mxCell>
        <mxCell id="XFLzxQZfM_v2sXhXUsD--111" value="" style="endArrow=open;html=1;rounded=0;endFill=0;startSize=6;endSize=6;strokeColor=#FFFFFF;strokeWidth=2;entryX=0.56;entryY=0.441;entryDx=0;entryDy=0;entryPerimeter=0;exitX=0.84;exitY=0.161;exitDx=0;exitDy=0;exitPerimeter=0;fontStyle=1" parent="XFLzxQZfM_v2sXhXUsD--116" source="XFLzxQZfM_v2sXhXUsD--105" target="XFLzxQZfM_v2sXhXUsD--105" edge="1">
          <mxGeometry width="50" height="50" relative="1" as="geometry">
            <mxPoint x="63" y="12.069999999999993" as="sourcePoint" />
            <mxPoint x="43" y="32.06999999999999" as="targetPoint" />
          </mxGeometry>
        </mxCell>
        <mxCell id="XFLzxQZfM_v2sXhXUsD--113" value="" style="endArrow=open;html=1;rounded=0;endFill=0;startSize=6;endSize=6;strokeColor=#FFFFFF;strokeWidth=2;entryX=0.44;entryY=0.561;entryDx=0;entryDy=0;entryPerimeter=0;exitX=0.16;exitY=0.841;exitDx=0;exitDy=0;exitPerimeter=0;fontStyle=1" parent="XFLzxQZfM_v2sXhXUsD--116" edge="1">
          <mxGeometry width="50" height="50" relative="1" as="geometry">
            <mxPoint x="11.999999999999943" y="63.07500000000033" as="sourcePoint" />
            <mxPoint x="33" y="42.0750000000001" as="targetPoint" />
          </mxGeometry>
        </mxCell>
        <mxCell id="XFLzxQZfM_v2sXhXUsD--114" value="" style="endArrow=open;html=1;rounded=0;endFill=0;startSize=6;endSize=6;strokeColor=#FFFFFF;strokeWidth=2;entryX=0.173;entryY=0.174;entryDx=0;entryDy=0;entryPerimeter=0;exitX=0.44;exitY=0.441;exitDx=0;exitDy=0;exitPerimeter=0;fontStyle=1" parent="XFLzxQZfM_v2sXhXUsD--116" source="XFLzxQZfM_v2sXhXUsD--105" target="XFLzxQZfM_v2sXhXUsD--105" edge="1">
          <mxGeometry width="50" height="50" relative="1" as="geometry">
            <mxPoint x="65" y="14.069999999999993" as="sourcePoint" />
            <mxPoint x="44" y="35.06999999999999" as="targetPoint" />
          </mxGeometry>
        </mxCell>
        <mxCell id="XFLzxQZfM_v2sXhXUsD--115" value="" style="endArrow=open;html=1;rounded=0;endFill=0;startSize=6;endSize=6;strokeColor=#FFFFFF;strokeWidth=2;entryX=0.827;entryY=0.828;entryDx=0;entryDy=0;entryPerimeter=0;fontStyle=1" parent="XFLzxQZfM_v2sXhXUsD--116" target="XFLzxQZfM_v2sXhXUsD--105" edge="1">
          <mxGeometry width="50" height="50" relative="1" as="geometry">
            <mxPoint x="42" y="42.06999999999999" as="sourcePoint" />
            <mxPoint x="15" y="15.069999999999993" as="targetPoint" />
          </mxGeometry>
        </mxCell>
        <mxCell id="XFLzxQZfM_v2sXhXUsD--123" value="dcgw1-dc1" style="text;html=1;align=center;verticalAlign=middle;resizable=0;points=[];autosize=1;strokeColor=none;fillColor=none;fontFamily=Google Sans;fontSource=https%3A%2F%2Ffonts.googleapis.com%2Fcss%3Ffamily%3DGoogle%2BSans;fontColor=#FFFFFF;rotation=-90;fontStyle=1" parent="XFLzxQZfM_v2sXhXUsD--125" vertex="1">
          <mxGeometry x="-25" y="25" width="76" height="26" as="geometry" />
        </mxCell>
        <mxCell id="XFLzxQZfM_v2sXhXUsD--126" value="" style="group;fontStyle=1" parent="1" vertex="1" connectable="0">
          <mxGeometry x="1388" y="532" width="101" height="78" as="geometry" />
        </mxCell>
        <mxCell id="XFLzxQZfM_v2sXhXUsD--117" value="" style="group;fontStyle=1" parent="XFLzxQZfM_v2sXhXUsD--126" vertex="1" connectable="0">
          <mxGeometry x="26" y="1.4999999999999716" width="75" height="75.00000000000006" as="geometry" />
        </mxCell>
        <mxCell id="XFLzxQZfM_v2sXhXUsD--118" value="" style="whiteSpace=wrap;html=1;aspect=fixed;fillColor=#124191;strokeColor=none;connectable=1;allowArrows=1;fontStyle=1" parent="XFLzxQZfM_v2sXhXUsD--117" vertex="1">
          <mxGeometry width="75" height="75" as="geometry" />
        </mxCell>
        <mxCell id="XFLzxQZfM_v2sXhXUsD--119" value="" style="endArrow=open;html=1;rounded=0;endFill=0;startSize=6;endSize=6;strokeColor=#FFFFFF;strokeWidth=2;entryX=0.56;entryY=0.441;entryDx=0;entryDy=0;entryPerimeter=0;exitX=0.84;exitY=0.161;exitDx=0;exitDy=0;exitPerimeter=0;fontStyle=1" parent="XFLzxQZfM_v2sXhXUsD--117" source="XFLzxQZfM_v2sXhXUsD--118" target="XFLzxQZfM_v2sXhXUsD--118" edge="1">
          <mxGeometry width="50" height="50" relative="1" as="geometry">
            <mxPoint x="63" y="12.069999999999993" as="sourcePoint" />
            <mxPoint x="43" y="32.06999999999999" as="targetPoint" />
          </mxGeometry>
        </mxCell>
        <mxCell id="XFLzxQZfM_v2sXhXUsD--120" value="" style="endArrow=open;html=1;rounded=0;endFill=0;startSize=6;endSize=6;strokeColor=#FFFFFF;strokeWidth=2;entryX=0.44;entryY=0.561;entryDx=0;entryDy=0;entryPerimeter=0;exitX=0.16;exitY=0.841;exitDx=0;exitDy=0;exitPerimeter=0;fontStyle=1" parent="XFLzxQZfM_v2sXhXUsD--117" edge="1">
          <mxGeometry width="50" height="50" relative="1" as="geometry">
            <mxPoint x="11.999999999999943" y="63.07500000000033" as="sourcePoint" />
            <mxPoint x="33" y="42.0750000000001" as="targetPoint" />
          </mxGeometry>
        </mxCell>
        <mxCell id="XFLzxQZfM_v2sXhXUsD--121" value="" style="endArrow=open;html=1;rounded=0;endFill=0;startSize=6;endSize=6;strokeColor=#FFFFFF;strokeWidth=2;entryX=0.173;entryY=0.174;entryDx=0;entryDy=0;entryPerimeter=0;exitX=0.44;exitY=0.441;exitDx=0;exitDy=0;exitPerimeter=0;fontStyle=1" parent="XFLzxQZfM_v2sXhXUsD--117" source="XFLzxQZfM_v2sXhXUsD--118" target="XFLzxQZfM_v2sXhXUsD--118" edge="1">
          <mxGeometry width="50" height="50" relative="1" as="geometry">
            <mxPoint x="65" y="14.069999999999993" as="sourcePoint" />
            <mxPoint x="44" y="35.06999999999999" as="targetPoint" />
          </mxGeometry>
        </mxCell>
        <mxCell id="XFLzxQZfM_v2sXhXUsD--122" value="" style="endArrow=open;html=1;rounded=0;endFill=0;startSize=6;endSize=6;strokeColor=#FFFFFF;strokeWidth=2;entryX=0.827;entryY=0.828;entryDx=0;entryDy=0;entryPerimeter=0;fontStyle=1" parent="XFLzxQZfM_v2sXhXUsD--117" target="XFLzxQZfM_v2sXhXUsD--118" edge="1">
          <mxGeometry width="50" height="50" relative="1" as="geometry">
            <mxPoint x="42" y="42.06999999999999" as="sourcePoint" />
            <mxPoint x="15" y="15.069999999999993" as="targetPoint" />
          </mxGeometry>
        </mxCell>
        <mxCell id="XFLzxQZfM_v2sXhXUsD--124" value="dcgw2-dc1" style="text;html=1;align=center;verticalAlign=middle;resizable=0;points=[];autosize=1;strokeColor=none;fillColor=none;fontFamily=Google Sans;fontSource=https%3A%2F%2Ffonts.googleapis.com%2Fcss%3Ffamily%3DGoogle%2BSans;fontColor=#FFFFFF;rotation=-90;fontStyle=1" parent="XFLzxQZfM_v2sXhXUsD--126" vertex="1">
          <mxGeometry x="-26" y="26" width="78" height="26" as="geometry" />
        </mxCell>
        <mxCell id="XFLzxQZfM_v2sXhXUsD--127" value="eth3" style="rounded=1;whiteSpace=wrap;html=1;fontFamily=Google Sans;fontSource=https%3A%2F%2Ffonts.googleapis.com%2Fcss%3Ffamily%3DGoogle%2BSans;arcSize=32;spacing=0;spacingBottom=1;fillColor=#f5f5f5;fontColor=#333333;strokeColor=#98A2AE;fontSize=10;" parent="1" vertex="1">
          <mxGeometry x="1300" y="639.5" width="25" height="13" as="geometry" />
        </mxCell>
        <mxCell id="XFLzxQZfM_v2sXhXUsD--128" value="eth2" style="rounded=1;whiteSpace=wrap;html=1;fontFamily=Google Sans;fontSource=https%3A%2F%2Ffonts.googleapis.com%2Fcss%3Ffamily%3DGoogle%2BSans;arcSize=32;spacing=0;spacingBottom=1;fillColor=#f5f5f5;fontColor=#333333;strokeColor=#98A2AE;fontSize=10;" parent="1" vertex="1">
          <mxGeometry x="1335" y="639.5" width="25" height="13" as="geometry" />
        </mxCell>
        <mxCell id="XFLzxQZfM_v2sXhXUsD--129" value="eth3" style="rounded=1;whiteSpace=wrap;html=1;fontFamily=Google Sans;fontSource=https%3A%2F%2Ffonts.googleapis.com%2Fcss%3Ffamily%3DGoogle%2BSans;arcSize=32;spacing=0;spacingBottom=1;fillColor=#f5f5f5;fontColor=#333333;strokeColor=#98A2AE;fontSize=10;" parent="1" vertex="1">
          <mxGeometry x="1405" y="639.5" width="25" height="13" as="geometry" />
        </mxCell>
        <mxCell id="XFLzxQZfM_v2sXhXUsD--130" value="eth2" style="rounded=1;whiteSpace=wrap;html=1;fontFamily=Google Sans;fontSource=https%3A%2F%2Ffonts.googleapis.com%2Fcss%3Ffamily%3DGoogle%2BSans;arcSize=32;spacing=0;spacingBottom=1;fillColor=#f5f5f5;fontColor=#333333;strokeColor=#98A2AE;fontSize=10;" parent="1" vertex="1">
          <mxGeometry x="1440" y="639.5" width="25" height="13" as="geometry" />
        </mxCell>
        <mxCell id="XFLzxQZfM_v2sXhXUsD--131" value="e1-31" style="rounded=1;whiteSpace=wrap;html=1;fontFamily=Google Sans;fontSource=https%3A%2F%2Ffonts.googleapis.com%2Fcss%3Ffamily%3DGoogle%2BSans;arcSize=32;spacing=0;spacingBottom=1;fillColor=#f5f5f5;fontColor=#333333;strokeColor=#98A2AE;fontSize=10;" parent="1" vertex="1">
          <mxGeometry x="1300" y="704.5" width="27" height="13" as="geometry" />
        </mxCell>
        <mxCell id="XFLzxQZfM_v2sXhXUsD--132" value="e1-32" style="rounded=1;whiteSpace=wrap;html=1;fontFamily=Google Sans;fontSource=https%3A%2F%2Ffonts.googleapis.com%2Fcss%3Ffamily%3DGoogle%2BSans;arcSize=32;spacing=0;spacingBottom=1;fillColor=#f5f5f5;fontColor=#333333;strokeColor=#98A2AE;fontSize=10;" parent="1" vertex="1">
          <mxGeometry x="1335" y="704.5" width="27" height="13" as="geometry" />
        </mxCell>
        <mxCell id="XFLzxQZfM_v2sXhXUsD--133" value="e1-31" style="rounded=1;whiteSpace=wrap;html=1;fontFamily=Google Sans;fontSource=https%3A%2F%2Ffonts.googleapis.com%2Fcss%3Ffamily%3DGoogle%2BSans;arcSize=32;spacing=0;spacingBottom=1;fillColor=#f5f5f5;fontColor=#333333;strokeColor=#98A2AE;fontSize=10;" parent="1" vertex="1">
          <mxGeometry x="1403" y="704.5" width="27" height="13" as="geometry" />
        </mxCell>
        <mxCell id="XFLzxQZfM_v2sXhXUsD--134" value="e1-32" style="rounded=1;whiteSpace=wrap;html=1;fontFamily=Google Sans;fontSource=https%3A%2F%2Ffonts.googleapis.com%2Fcss%3Ffamily%3DGoogle%2BSans;arcSize=32;spacing=0;spacingBottom=1;fillColor=#f5f5f5;fontColor=#333333;strokeColor=#98A2AE;fontSize=10;" parent="1" vertex="1">
          <mxGeometry x="1438" y="704.5" width="27" height="13" as="geometry" />
        </mxCell>
        <mxCell id="XFLzxQZfM_v2sXhXUsD--135" value="eth1" style="rounded=1;whiteSpace=wrap;html=1;fontFamily=Google Sans;fontSource=https%3A%2F%2Ffonts.googleapis.com%2Fcss%3Ffamily%3DGoogle%2BSans;arcSize=32;spacing=0;spacingBottom=1;fillColor=#f5f5f5;fontColor=#333333;strokeColor=#98A2AE;fontSize=10;" parent="1" vertex="1">
          <mxGeometry x="1314" y="496.5" width="25" height="13" as="geometry" />
        </mxCell>
        <mxCell id="XFLzxQZfM_v2sXhXUsD--144" value="eth1" style="rounded=1;whiteSpace=wrap;html=1;fontFamily=Google Sans;fontSource=https%3A%2F%2Ffonts.googleapis.com%2Fcss%3Ffamily%3DGoogle%2BSans;arcSize=32;spacing=0;spacingBottom=1;fillColor=#f5f5f5;fontColor=#333333;strokeColor=#98A2AE;fontSize=10;" parent="1" vertex="1">
          <mxGeometry x="1447" y="496.5" width="25" height="13" as="geometry" />
        </mxCell>
        <mxCell id="XFLzxQZfM_v2sXhXUsD--145" value="eth5" style="rounded=1;whiteSpace=wrap;html=1;fontFamily=Google Sans;fontSource=https%3A%2F%2Ffonts.googleapis.com%2Fcss%3Ffamily%3DGoogle%2BSans;arcSize=32;spacing=0;spacingBottom=1;fillColor=#f5f5f5;fontColor=#333333;strokeColor=#98A2AE;fontSize=10;" parent="1" vertex="1">
          <mxGeometry x="1588" y="432.5" width="25" height="13" as="geometry" />
        </mxCell>
        <mxCell id="XFLzxQZfM_v2sXhXUsD--146" value="eth6" style="rounded=1;whiteSpace=wrap;html=1;fontFamily=Google Sans;fontSource=https%3A%2F%2Ffonts.googleapis.com%2Fcss%3Ffamily%3DGoogle%2BSans;arcSize=32;spacing=0;spacingBottom=1;fillColor=#f5f5f5;fontColor=#333333;strokeColor=#98A2AE;fontSize=10;" parent="1" vertex="1">
          <mxGeometry x="1588" y="470.5" width="25" height="13" as="geometry" />
        </mxCell>
        <object label="" src_label="e1-6" trgt_label="e1-31" source="spine1-dc1" target="leaf4-dc1" id="XFLzxQZfM_v2sXhXUsD--147">
          <mxCell style="endArrow=none;jumpStyle=gap;exitY=1;exitX=0.5;fontFamily=Google Sans;fontSource=https%3A%2F%2Ffonts.googleapis.com%2Fcss%3Ffamily%3DGoogle%2BSans;entryX=0.5;entryY=0;entryDx=0;entryDy=0;strokeColor=#98A2AE;exitDx=0;exitDy=0;" parent="1" source="XFLzxQZfM_v2sXhXUsD--227" target="XFLzxQZfM_v2sXhXUsD--197" edge="1">
            <mxGeometry relative="1" as="geometry">
              <mxPoint x="1993.7399999999998" y="820.5" as="sourcePoint" />
              <mxPoint x="2246.24" y="973.5" as="targetPoint" />
            </mxGeometry>
          </mxCell>
        </object>
        <object label="" src_label="e1-3" trgt_label="e1-32" source="spine2-dc1" target="leaf1-dc1" id="XFLzxQZfM_v2sXhXUsD--148">
          <mxCell style="endArrow=none;jumpStyle=gap;entryY=0;exitY=1;entryX=0.5;exitX=0.5;fontFamily=Google Sans;fontSource=https%3A%2F%2Ffonts.googleapis.com%2Fcss%3Ffamily%3DGoogle%2BSans;entryDx=0;entryDy=0;strokeColor=#98A2AE;exitDx=0;exitDy=0;" parent="1" source="XFLzxQZfM_v2sXhXUsD--235" target="XFLzxQZfM_v2sXhXUsD--173" edge="1">
            <mxGeometry relative="1" as="geometry">
              <mxPoint x="2133.74" y="820.5" as="sourcePoint" />
              <mxPoint x="1833.74" y="975.04" as="targetPoint" />
            </mxGeometry>
          </mxCell>
        </object>
        <object label="" src_label="eth1" trgt_label="eth5" source="dcgw1-dc1" target="p1" id="XFLzxQZfM_v2sXhXUsD--149">
          <mxCell style="endArrow=none;jumpStyle=gap;entryY=0.75;exitY=0;entryX=1;exitX=0.5;exitDx=0;exitDy=0;fontFamily=Google Sans;fontSource=https%3A%2F%2Ffonts.googleapis.com%2Fcss%3Ffamily%3DGoogle%2BSans;entryDx=0;entryDy=0;strokeColor=#98A2AE;" parent="1" source="XFLzxQZfM_v2sXhXUsD--251" target="XFLzxQZfM_v2sXhXUsD--138" edge="1">
            <mxGeometry relative="1" as="geometry">
              <mxPoint x="2015.5" y="534.3199999999999" as="sourcePoint" />
              <mxPoint x="2357" y="456.5" as="targetPoint" />
              <Array as="points">
                <mxPoint x="1983" y="475.5" />
              </Array>
            </mxGeometry>
          </mxCell>
        </object>
        <object label="" src_label="eth1" trgt_label="eth6" source="dcgw2-dc1" target="p1" id="XFLzxQZfM_v2sXhXUsD--150">
          <mxCell style="endArrow=none;jumpStyle=gap;exitY=0;exitX=0.5;exitDx=0;exitDy=0;fontFamily=Google Sans;fontSource=https%3A%2F%2Ffonts.googleapis.com%2Fcss%3Ffamily%3DGoogle%2BSans;strokeColor=#98A2AE;entryX=1;entryY=0.25;entryDx=0;entryDy=0;" parent="1" source="XFLzxQZfM_v2sXhXUsD--259" target="XFLzxQZfM_v2sXhXUsD--138" edge="1">
            <mxGeometry relative="1" as="geometry">
              <mxPoint x="2155.5" y="534.3199999999999" as="sourcePoint" />
              <mxPoint x="1817" y="455.5" as="targetPoint" />
              <Array as="points">
                <mxPoint x="2099" y="440.5" />
              </Array>
            </mxGeometry>
          </mxCell>
        </object>
        <object label="" src_label="e1-31" trgt_label="eth3" source="spine1-dc1" target="dcgw1-dc1" id="XFLzxQZfM_v2sXhXUsD--151">
          <mxCell style="endArrow=none;jumpStyle=gap;entryY=1;exitY=0;entryX=0.5;exitX=0.5;entryDx=0;entryDy=0;exitDx=0;exitDy=0;fontFamily=Google Sans;fontSource=https%3A%2F%2Ffonts.googleapis.com%2Fcss%3Ffamily%3DGoogle%2BSans;strokeColor=#98A2AE;" parent="1" target="XFLzxQZfM_v2sXhXUsD--251" edge="1">
            <mxGeometry relative="1" as="geometry">
              <mxPoint x="1993.7399999999998" y="745.5" as="sourcePoint" />
              <mxPoint x="1993.74" y="609.3199999999999" as="targetPoint" />
            </mxGeometry>
          </mxCell>
        </object>
        <object label="" src_label="e1-32" trgt_label="eth3" source="spine1-dc1" target="dcgw2-dc1" id="XFLzxQZfM_v2sXhXUsD--152">
          <mxCell style="endArrow=none;jumpStyle=gap;entryY=1;exitY=0;entryX=0.5;exitX=0.5;entryDx=0;entryDy=0;exitDx=0;exitDy=0;fontFamily=Google Sans;fontSource=https%3A%2F%2Ffonts.googleapis.com%2Fcss%3Ffamily%3DGoogle%2BSans;strokeColor=#98A2AE;" parent="1" target="XFLzxQZfM_v2sXhXUsD--259" edge="1">
            <mxGeometry relative="1" as="geometry">
              <mxPoint x="1993.7399999999998" y="745.5" as="sourcePoint" />
              <mxPoint x="2133.74" y="609.3199999999999" as="targetPoint" />
            </mxGeometry>
          </mxCell>
        </object>
        <object label="" src_label="e1-31" trgt_label="eth2" source="spine2-dc1" target="dcgw1-dc1" id="XFLzxQZfM_v2sXhXUsD--153">
          <mxCell style="endArrow=none;jumpStyle=gap;entryY=1;exitY=0;entryX=0.5;exitX=0.5;entryDx=0;entryDy=0;exitDx=0;exitDy=0;fontFamily=Google Sans;fontSource=https%3A%2F%2Ffonts.googleapis.com%2Fcss%3Ffamily%3DGoogle%2BSans;strokeColor=#98A2AE;" parent="1" target="XFLzxQZfM_v2sXhXUsD--251" edge="1">
            <mxGeometry relative="1" as="geometry">
              <mxPoint x="2133.74" y="745.5" as="sourcePoint" />
              <mxPoint x="1993.74" y="609.3199999999999" as="targetPoint" />
            </mxGeometry>
          </mxCell>
        </object>
        <object label="" src_label="e1-32" trgt_label="eth2" source="spine2-dc1" target="dcgw2-dc1" id="XFLzxQZfM_v2sXhXUsD--154">
          <mxCell style="endArrow=none;jumpStyle=gap;entryY=1;exitY=0;entryX=0.5;exitX=0.5;entryDx=0;entryDy=0;exitDx=0;exitDy=0;fontFamily=Google Sans;fontSource=https%3A%2F%2Ffonts.googleapis.com%2Fcss%3Ffamily%3DGoogle%2BSans;strokeColor=#98A2AE;" parent="1" target="XFLzxQZfM_v2sXhXUsD--259" edge="1">
            <mxGeometry relative="1" as="geometry">
              <mxPoint x="2133.74" y="745.5" as="sourcePoint" />
              <mxPoint x="2133.74" y="609.3199999999999" as="targetPoint" />
            </mxGeometry>
          </mxCell>
        </object>
        <object label="" src_label="e1-3" trgt_label="e1-31" source="spine1-dc1" target="leaf1-dc1" id="XFLzxQZfM_v2sXhXUsD--155">
          <mxCell style="endArrow=none;jumpStyle=gap;entryY=0;exitY=1;entryX=0.5;exitX=0.5;fontFamily=Google Sans;fontSource=https%3A%2F%2Ffonts.googleapis.com%2Fcss%3Ffamily%3DGoogle%2BSans;entryDx=0;entryDy=0;strokeColor=#98A2AE;exitDx=0;exitDy=0;" parent="1" source="XFLzxQZfM_v2sXhXUsD--227" target="XFLzxQZfM_v2sXhXUsD--173" edge="1">
            <mxGeometry relative="1" as="geometry">
              <mxPoint x="1993.7399999999998" y="820.5" as="sourcePoint" />
              <mxPoint x="1833.74" y="975.04" as="targetPoint" />
            </mxGeometry>
          </mxCell>
        </object>
        <object label="" src_label="e1-4" trgt_label="e1-31" source="spine1-dc1" target="leaf2-dc1" id="XFLzxQZfM_v2sXhXUsD--156">
          <mxCell style="endArrow=none;jumpStyle=gap;entryY=0;exitY=1;entryX=0.5;exitX=0.5;fontFamily=Google Sans;fontSource=https%3A%2F%2Ffonts.googleapis.com%2Fcss%3Ffamily%3DGoogle%2BSans;strokeColor=#98A2AE;exitDx=0;exitDy=0;" parent="1" source="XFLzxQZfM_v2sXhXUsD--227" edge="1">
            <mxGeometry relative="1" as="geometry">
              <mxPoint x="1993.7399999999998" y="820.5" as="sourcePoint" />
              <mxPoint x="1973.74" y="975.04" as="targetPoint" />
            </mxGeometry>
          </mxCell>
        </object>
        <object label="" src_label="e1-5" trgt_label="e1-31" source="spine1-dc1" target="leaf3-dc1" id="XFLzxQZfM_v2sXhXUsD--157">
          <mxCell style="endArrow=none;jumpStyle=gap;entryY=0;exitY=1;entryX=0.5;exitX=0.5;fontFamily=Google Sans;fontSource=https%3A%2F%2Ffonts.googleapis.com%2Fcss%3Ffamily%3DGoogle%2BSans;strokeColor=#98A2AE;exitDx=0;exitDy=0;" parent="1" source="XFLzxQZfM_v2sXhXUsD--227" edge="1">
            <mxGeometry relative="1" as="geometry">
              <mxPoint x="1993.7399999999998" y="820.5" as="sourcePoint" />
              <mxPoint x="2123.74" y="975.04" as="targetPoint" />
            </mxGeometry>
          </mxCell>
        </object>
        <object label="" src_label="e1-4" trgt_label="e1-32" source="spine2-dc1" target="leaf2-dc1" id="XFLzxQZfM_v2sXhXUsD--158">
          <mxCell style="endArrow=none;jumpStyle=gap;entryY=0;exitY=1;entryX=0.5;exitX=0.5;fontFamily=Google Sans;fontSource=https%3A%2F%2Ffonts.googleapis.com%2Fcss%3Ffamily%3DGoogle%2BSans;strokeColor=#98A2AE;" parent="1" edge="1">
            <mxGeometry relative="1" as="geometry">
              <mxPoint x="2133.74" y="820.5" as="sourcePoint" />
              <mxPoint x="1973.74" y="975.04" as="targetPoint" />
            </mxGeometry>
          </mxCell>
        </object>
        <object label="" src_label="e1-5" trgt_label="e1-32" source="spine2-dc1" target="leaf3-dc1" id="XFLzxQZfM_v2sXhXUsD--159">
          <mxCell style="endArrow=none;jumpStyle=gap;entryY=0;exitY=1;entryX=0.5;exitX=0.5;fontFamily=Google Sans;fontSource=https%3A%2F%2Ffonts.googleapis.com%2Fcss%3Ffamily%3DGoogle%2BSans;strokeColor=#98A2AE;" parent="1" edge="1">
            <mxGeometry relative="1" as="geometry">
              <mxPoint x="2133.74" y="820.5" as="sourcePoint" />
              <mxPoint x="2123.74" y="975.04" as="targetPoint" />
            </mxGeometry>
          </mxCell>
        </object>
        <object label="" src_label="e1-6" trgt_label="e1-32" source="spine2-dc1" target="leaf4-dc1" id="XFLzxQZfM_v2sXhXUsD--160">
          <mxCell style="endArrow=none;jumpStyle=gap;entryY=0;exitY=1;entryX=0.5;exitX=0.5;fontFamily=Google Sans;fontSource=https%3A%2F%2Ffonts.googleapis.com%2Fcss%3Ffamily%3DGoogle%2BSans;entryDx=0;entryDy=0;strokeColor=#98A2AE;exitDx=0;exitDy=0;" parent="1" source="XFLzxQZfM_v2sXhXUsD--235" target="XFLzxQZfM_v2sXhXUsD--197" edge="1">
            <mxGeometry relative="1" as="geometry">
              <mxPoint x="2133.74" y="820.5" as="sourcePoint" />
              <mxPoint x="2263.74" y="975.04" as="targetPoint" />
            </mxGeometry>
          </mxCell>
        </object>
        <object label="" src_label="eth1" trgt_label="e1-1" source="client1-dc1" target="leaf1-dc1" id="XFLzxQZfM_v2sXhXUsD--161">
          <mxCell style="endArrow=none;jumpStyle=gap;entryY=1;exitY=0;entryX=0.5;exitX=0.5;exitDx=0;exitDy=0;entryDx=0;entryDy=0;fontFamily=Google Sans;fontSource=https%3A%2F%2Ffonts.googleapis.com%2Fcss%3Ffamily%3DGoogle%2BSans;strokeColor=#98a2ae;" parent="1" source="XFLzxQZfM_v2sXhXUsD--165" target="XFLzxQZfM_v2sXhXUsD--173" edge="1">
            <mxGeometry relative="1" as="geometry">
              <mxPoint x="1833.74" y="1115.04" as="sourcePoint" />
              <mxPoint x="1833.74" y="1050.04" as="targetPoint" />
            </mxGeometry>
          </mxCell>
        </object>
        <mxCell id="XFLzxQZfM_v2sXhXUsD--162" value="" style="endArrow=none;jumpStyle=gap;entryY=1;exitY=0;entryX=0.5;exitX=0.5;exitDx=0;exitDy=0;entryDx=0;entryDy=0;fontFamily=Google Sans;fontSource=https%3A%2F%2Ffonts.googleapis.com%2Fcss%3Ffamily%3DGoogle%2BSans;strokeColor=#98a2ae;" parent="1" source="XFLzxQZfM_v2sXhXUsD--205" target="XFLzxQZfM_v2sXhXUsD--163" edge="1">
          <mxGeometry relative="1" as="geometry">
            <mxPoint x="1833.74" y="1115.04" as="sourcePoint" />
            <mxPoint x="1834.24" y="1050.5" as="targetPoint" />
          </mxGeometry>
        </mxCell>
        <mxCell id="XFLzxQZfM_v2sXhXUsD--163" value="eth1" style="rounded=1;whiteSpace=wrap;html=1;fontFamily=Google Sans;fontSource=https%3A%2F%2Ffonts.googleapis.com%2Fcss%3Ffamily%3DGoogle%2BSans;arcSize=32;spacing=0;spacingBottom=1;fillColor=#f5f5f5;fontColor=#333333;strokeColor=#98A2AE;fontSize=10;" parent="1" vertex="1">
          <mxGeometry x="1821.24" y="1092.5" width="25" height="13" as="geometry" />
        </mxCell>
        <mxCell id="XFLzxQZfM_v2sXhXUsD--164" value="" style="endArrow=none;jumpStyle=gap;entryY=1;exitY=0;entryX=0.5;exitX=0.5;exitDx=0;exitDy=0;entryDx=0;entryDy=0;fontFamily=Google Sans;fontSource=https%3A%2F%2Ffonts.googleapis.com%2Fcss%3Ffamily%3DGoogle%2BSans;strokeColor=#98a2ae;" parent="1" source="XFLzxQZfM_v2sXhXUsD--163" target="XFLzxQZfM_v2sXhXUsD--165" edge="1">
          <mxGeometry relative="1" as="geometry">
            <mxPoint x="1834.24" y="1092.5" as="sourcePoint" />
            <mxPoint x="1833.24" y="1050.5" as="targetPoint" />
          </mxGeometry>
        </mxCell>
        <mxCell id="XFLzxQZfM_v2sXhXUsD--165" value="e1-1" style="rounded=1;whiteSpace=wrap;html=1;fontFamily=Google Sans;fontSource=https%3A%2F%2Ffonts.googleapis.com%2Fcss%3Ffamily%3DGoogle%2BSans;arcSize=32;spacing=0;spacingBottom=1;fillColor=#f5f5f5;fontColor=#333333;strokeColor=#98A2AE;fontSize=10;align=center;verticalAlign=middle;" parent="1" vertex="1">
          <mxGeometry x="1821.24" y="1057.5" width="25" height="13" as="geometry" />
        </mxCell>
        <object label="" src_label="eth1" trgt_label="e1-1" source="client1-dc1" target="leaf1-dc1" id="XFLzxQZfM_v2sXhXUsD--166">
          <mxCell style="endArrow=none;jumpStyle=gap;entryY=1;exitY=0;entryX=0.5;exitX=0.5;exitDx=0;exitDy=0;entryDx=0;entryDy=0;fontFamily=Google Sans;fontSource=https%3A%2F%2Ffonts.googleapis.com%2Fcss%3Ffamily%3DGoogle%2BSans;strokeColor=#98a2ae;" parent="1" source="XFLzxQZfM_v2sXhXUsD--170" target="XFLzxQZfM_v2sXhXUsD--197" edge="1">
            <mxGeometry relative="1" as="geometry">
              <mxPoint x="2263.74" y="1115.04" as="sourcePoint" />
              <mxPoint x="2264.24" y="1050.5" as="targetPoint" />
            </mxGeometry>
          </mxCell>
        </object>
        <mxCell id="XFLzxQZfM_v2sXhXUsD--167" value="" style="endArrow=none;jumpStyle=gap;entryY=1;exitY=0;entryX=0.5;exitX=0.5;exitDx=0;exitDy=0;entryDx=0;entryDy=0;fontFamily=Google Sans;fontSource=https%3A%2F%2Ffonts.googleapis.com%2Fcss%3Ffamily%3DGoogle%2BSans;strokeColor=#98a2ae;" parent="1" source="XFLzxQZfM_v2sXhXUsD--212" target="XFLzxQZfM_v2sXhXUsD--168" edge="1">
          <mxGeometry relative="1" as="geometry">
            <mxPoint x="2264.24" y="1114.5" as="sourcePoint" />
            <mxPoint x="2264.24" y="1050.5" as="targetPoint" />
          </mxGeometry>
        </mxCell>
        <mxCell id="XFLzxQZfM_v2sXhXUsD--168" value="eth1" style="rounded=1;whiteSpace=wrap;html=1;fontFamily=Google Sans;fontSource=https%3A%2F%2Ffonts.googleapis.com%2Fcss%3Ffamily%3DGoogle%2BSans;arcSize=32;spacing=0;spacingBottom=1;fillColor=#f5f5f5;fontColor=#333333;strokeColor=#98A2AE;fontSize=10;" parent="1" vertex="1">
          <mxGeometry x="2251.24" y="1092.5" width="25" height="13" as="geometry" />
        </mxCell>
        <mxCell id="XFLzxQZfM_v2sXhXUsD--169" value="" style="endArrow=none;jumpStyle=gap;entryY=1;exitY=0;entryX=0.5;exitX=0.5;exitDx=0;exitDy=0;entryDx=0;entryDy=0;fontFamily=Google Sans;fontSource=https%3A%2F%2Ffonts.googleapis.com%2Fcss%3Ffamily%3DGoogle%2BSans;strokeColor=#98a2ae;" parent="1" source="XFLzxQZfM_v2sXhXUsD--168" target="XFLzxQZfM_v2sXhXUsD--170" edge="1">
          <mxGeometry relative="1" as="geometry">
            <mxPoint x="2264.24" y="1092.5" as="sourcePoint" />
            <mxPoint x="2263.24" y="1050.5" as="targetPoint" />
          </mxGeometry>
        </mxCell>
        <mxCell id="XFLzxQZfM_v2sXhXUsD--170" value="e1-1" style="rounded=1;whiteSpace=wrap;html=1;fontFamily=Google Sans;fontSource=https%3A%2F%2Ffonts.googleapis.com%2Fcss%3Ffamily%3DGoogle%2BSans;arcSize=32;spacing=0;spacingBottom=1;fillColor=#f5f5f5;fontColor=#333333;strokeColor=#98A2AE;fontSize=10;align=center;verticalAlign=middle;" parent="1" vertex="1">
          <mxGeometry x="2251.24" y="1057.5" width="25" height="13" as="geometry" />
        </mxCell>
        <mxCell id="XFLzxQZfM_v2sXhXUsD--179" value="" style="group;fontStyle=1" parent="1" vertex="1" connectable="0">
          <mxGeometry x="2061.24" y="975.04" width="101" height="75" as="geometry" />
        </mxCell>
        <mxCell id="XFLzxQZfM_v2sXhXUsD--180" value="" style="group;aspect=fixed;fontStyle=1" parent="XFLzxQZfM_v2sXhXUsD--179" vertex="1" connectable="0">
          <mxGeometry x="26" width="75" height="75" as="geometry" />
        </mxCell>
        <mxCell id="XFLzxQZfM_v2sXhXUsD--181" value="" style="whiteSpace=wrap;html=1;aspect=fixed;fillColor=#001135;strokeColor=none;connectable=1;allowArrows=1;fontStyle=1" parent="XFLzxQZfM_v2sXhXUsD--180" vertex="1">
          <mxGeometry width="75" height="75" as="geometry" />
        </mxCell>
        <mxCell id="XFLzxQZfM_v2sXhXUsD--182" value="" style="endArrow=open;html=1;edgeStyle=orthogonalEdgeStyle;rounded=0;endFill=0;startSize=6;endSize=6;strokeColor=#FFFFFF;strokeWidth=2;fontStyle=1" parent="XFLzxQZfM_v2sXhXUsD--180" edge="1">
          <mxGeometry width="50" height="50" relative="1" as="geometry">
            <mxPoint x="7.5" y="30" as="sourcePoint" />
            <mxPoint x="27.499999999999996" y="7.5" as="targetPoint" />
            <Array as="points">
              <mxPoint x="27.499999999999996" y="30" />
            </Array>
          </mxGeometry>
        </mxCell>
        <mxCell id="XFLzxQZfM_v2sXhXUsD--183" value="" style="endArrow=open;html=1;edgeStyle=orthogonalEdgeStyle;rounded=0;endFill=0;startSize=6;endSize=6;strokeColor=#FFFFFF;strokeWidth=2;fontStyle=1" parent="XFLzxQZfM_v2sXhXUsD--180" edge="1">
          <mxGeometry width="50" height="50" relative="1" as="geometry">
            <mxPoint x="27.499999999999996" y="67.5" as="sourcePoint" />
            <mxPoint x="7.5" y="47.49999999999999" as="targetPoint" />
            <Array as="points">
              <mxPoint x="27.499999999999996" y="47.49999999999999" />
            </Array>
          </mxGeometry>
        </mxCell>
        <mxCell id="XFLzxQZfM_v2sXhXUsD--184" value="" style="endArrow=open;html=1;edgeStyle=orthogonalEdgeStyle;rounded=0;endFill=0;startSize=6;endSize=6;strokeColor=#FFFFFF;strokeWidth=2;fontStyle=1" parent="XFLzxQZfM_v2sXhXUsD--180" edge="1">
          <mxGeometry width="50" height="50" relative="1" as="geometry">
            <mxPoint x="44.99999999999999" y="7.5" as="sourcePoint" />
            <mxPoint x="67.5" y="30" as="targetPoint" />
            <Array as="points">
              <mxPoint x="44.99999999999999" y="30" />
            </Array>
          </mxGeometry>
        </mxCell>
        <mxCell id="XFLzxQZfM_v2sXhXUsD--185" value="" style="endArrow=open;html=1;edgeStyle=orthogonalEdgeStyle;rounded=0;endFill=0;startSize=6;endSize=6;strokeColor=#FFFFFF;strokeWidth=2;fontStyle=1" parent="XFLzxQZfM_v2sXhXUsD--180" edge="1">
          <mxGeometry width="50" height="50" relative="1" as="geometry">
            <mxPoint x="67.5" y="47.49999999999999" as="sourcePoint" />
            <mxPoint x="44.99999999999999" y="67.5" as="targetPoint" />
            <Array as="points">
              <mxPoint x="44.99999999999999" y="47.49999999999999" />
            </Array>
          </mxGeometry>
        </mxCell>
        <mxCell id="XFLzxQZfM_v2sXhXUsD--186" value="leaf3-dc2" style="text;html=1;align=center;verticalAlign=middle;resizable=0;points=[];autosize=1;strokeColor=none;fillColor=none;fontFamily=Google Sans;fontSource=https%3A%2F%2Ffonts.googleapis.com%2Fcss%3Ffamily%3DGoogle%2BSans;fontColor=#FFFFFF;rotation=-90;fontStyle=1" parent="XFLzxQZfM_v2sXhXUsD--179" vertex="1">
          <mxGeometry x="-22" y="24.5" width="70" height="26" as="geometry" />
        </mxCell>
        <mxCell id="XFLzxQZfM_v2sXhXUsD--187" value="" style="group;fontStyle=1" parent="1" vertex="1" connectable="0">
          <mxGeometry x="1910.24" y="975.04" width="101" height="75" as="geometry" />
        </mxCell>
        <mxCell id="XFLzxQZfM_v2sXhXUsD--188" value="" style="group;aspect=fixed;fontStyle=1" parent="XFLzxQZfM_v2sXhXUsD--187" vertex="1" connectable="0">
          <mxGeometry x="26" width="75" height="75" as="geometry" />
        </mxCell>
        <mxCell id="XFLzxQZfM_v2sXhXUsD--189" value="" style="whiteSpace=wrap;html=1;aspect=fixed;fillColor=#001135;strokeColor=none;connectable=1;allowArrows=1;fontStyle=1" parent="XFLzxQZfM_v2sXhXUsD--188" vertex="1">
          <mxGeometry width="75" height="75" as="geometry" />
        </mxCell>
        <mxCell id="XFLzxQZfM_v2sXhXUsD--190" value="" style="endArrow=open;html=1;edgeStyle=orthogonalEdgeStyle;rounded=0;endFill=0;startSize=6;endSize=6;strokeColor=#FFFFFF;strokeWidth=2;fontStyle=1" parent="XFLzxQZfM_v2sXhXUsD--188" edge="1">
          <mxGeometry width="50" height="50" relative="1" as="geometry">
            <mxPoint x="7.5" y="30" as="sourcePoint" />
            <mxPoint x="27.499999999999996" y="7.5" as="targetPoint" />
            <Array as="points">
              <mxPoint x="27.499999999999996" y="30" />
            </Array>
          </mxGeometry>
        </mxCell>
        <mxCell id="XFLzxQZfM_v2sXhXUsD--191" value="" style="endArrow=open;html=1;edgeStyle=orthogonalEdgeStyle;rounded=0;endFill=0;startSize=6;endSize=6;strokeColor=#FFFFFF;strokeWidth=2;fontStyle=1" parent="XFLzxQZfM_v2sXhXUsD--188" edge="1">
          <mxGeometry width="50" height="50" relative="1" as="geometry">
            <mxPoint x="27.499999999999996" y="67.5" as="sourcePoint" />
            <mxPoint x="7.5" y="47.49999999999999" as="targetPoint" />
            <Array as="points">
              <mxPoint x="27.499999999999996" y="47.49999999999999" />
            </Array>
          </mxGeometry>
        </mxCell>
        <mxCell id="XFLzxQZfM_v2sXhXUsD--192" value="" style="endArrow=open;html=1;edgeStyle=orthogonalEdgeStyle;rounded=0;endFill=0;startSize=6;endSize=6;strokeColor=#FFFFFF;strokeWidth=2;fontStyle=1" parent="XFLzxQZfM_v2sXhXUsD--188" edge="1">
          <mxGeometry width="50" height="50" relative="1" as="geometry">
            <mxPoint x="44.99999999999999" y="7.5" as="sourcePoint" />
            <mxPoint x="67.5" y="30" as="targetPoint" />
            <Array as="points">
              <mxPoint x="44.99999999999999" y="30" />
            </Array>
          </mxGeometry>
        </mxCell>
        <mxCell id="XFLzxQZfM_v2sXhXUsD--193" value="" style="endArrow=open;html=1;edgeStyle=orthogonalEdgeStyle;rounded=0;endFill=0;startSize=6;endSize=6;strokeColor=#FFFFFF;strokeWidth=2;fontStyle=1" parent="XFLzxQZfM_v2sXhXUsD--188" edge="1">
          <mxGeometry width="50" height="50" relative="1" as="geometry">
            <mxPoint x="67.5" y="47.49999999999999" as="sourcePoint" />
            <mxPoint x="44.99999999999999" y="67.5" as="targetPoint" />
            <Array as="points">
              <mxPoint x="44.99999999999999" y="47.49999999999999" />
            </Array>
          </mxGeometry>
        </mxCell>
        <mxCell id="XFLzxQZfM_v2sXhXUsD--194" value="leaf2-dc2" style="text;html=1;align=center;verticalAlign=middle;resizable=0;points=[];autosize=1;strokeColor=none;fillColor=none;fontFamily=Google Sans;fontSource=https%3A%2F%2Ffonts.googleapis.com%2Fcss%3Ffamily%3DGoogle%2BSans;fontColor=#FFFFFF;rotation=-90;fontStyle=1" parent="XFLzxQZfM_v2sXhXUsD--187" vertex="1">
          <mxGeometry x="-22" y="24.500000000000057" width="70" height="26" as="geometry" />
        </mxCell>
        <mxCell id="XFLzxQZfM_v2sXhXUsD--195" value="" style="group;fontStyle=1" parent="1" vertex="1" connectable="0">
          <mxGeometry x="2200.74" y="975.04" width="100.5" height="75" as="geometry" />
        </mxCell>
        <mxCell id="XFLzxQZfM_v2sXhXUsD--196" value="" style="group;aspect=fixed;fontStyle=1" parent="XFLzxQZfM_v2sXhXUsD--195" vertex="1" connectable="0">
          <mxGeometry x="25.5" width="75" height="75" as="geometry" />
        </mxCell>
        <mxCell id="XFLzxQZfM_v2sXhXUsD--197" value="" style="whiteSpace=wrap;html=1;aspect=fixed;fillColor=#001135;strokeColor=none;connectable=1;allowArrows=1;fontStyle=1" parent="XFLzxQZfM_v2sXhXUsD--196" vertex="1">
          <mxGeometry width="75" height="75" as="geometry" />
        </mxCell>
        <mxCell id="XFLzxQZfM_v2sXhXUsD--198" value="" style="endArrow=open;html=1;edgeStyle=orthogonalEdgeStyle;rounded=0;endFill=0;startSize=6;endSize=6;strokeColor=#FFFFFF;strokeWidth=2;fontStyle=1" parent="XFLzxQZfM_v2sXhXUsD--196" edge="1">
          <mxGeometry width="50" height="50" relative="1" as="geometry">
            <mxPoint x="7.5" y="30" as="sourcePoint" />
            <mxPoint x="27.499999999999996" y="7.5" as="targetPoint" />
            <Array as="points">
              <mxPoint x="27.499999999999996" y="30" />
            </Array>
          </mxGeometry>
        </mxCell>
        <mxCell id="XFLzxQZfM_v2sXhXUsD--199" value="" style="endArrow=open;html=1;edgeStyle=orthogonalEdgeStyle;rounded=0;endFill=0;startSize=6;endSize=6;strokeColor=#FFFFFF;strokeWidth=2;fontStyle=1" parent="XFLzxQZfM_v2sXhXUsD--196" edge="1">
          <mxGeometry width="50" height="50" relative="1" as="geometry">
            <mxPoint x="27.499999999999996" y="67.5" as="sourcePoint" />
            <mxPoint x="7.5" y="47.49999999999999" as="targetPoint" />
            <Array as="points">
              <mxPoint x="27.499999999999996" y="47.49999999999999" />
            </Array>
          </mxGeometry>
        </mxCell>
        <mxCell id="XFLzxQZfM_v2sXhXUsD--200" value="" style="endArrow=open;html=1;edgeStyle=orthogonalEdgeStyle;rounded=0;endFill=0;startSize=6;endSize=6;strokeColor=#FFFFFF;strokeWidth=2;fontStyle=1" parent="XFLzxQZfM_v2sXhXUsD--196" edge="1">
          <mxGeometry width="50" height="50" relative="1" as="geometry">
            <mxPoint x="44.99999999999999" y="7.5" as="sourcePoint" />
            <mxPoint x="67.5" y="30" as="targetPoint" />
            <Array as="points">
              <mxPoint x="44.99999999999999" y="30" />
            </Array>
          </mxGeometry>
        </mxCell>
        <mxCell id="XFLzxQZfM_v2sXhXUsD--201" value="" style="endArrow=open;html=1;edgeStyle=orthogonalEdgeStyle;rounded=0;endFill=0;startSize=6;endSize=6;strokeColor=#FFFFFF;strokeWidth=2;fontStyle=1" parent="XFLzxQZfM_v2sXhXUsD--196" edge="1">
          <mxGeometry width="50" height="50" relative="1" as="geometry">
            <mxPoint x="67.5" y="47.49999999999999" as="sourcePoint" />
            <mxPoint x="44.99999999999999" y="67.5" as="targetPoint" />
            <Array as="points">
              <mxPoint x="44.99999999999999" y="47.49999999999999" />
            </Array>
          </mxGeometry>
        </mxCell>
        <mxCell id="XFLzxQZfM_v2sXhXUsD--202" value="leaf4-dc2" style="text;html=1;align=center;verticalAlign=middle;resizable=0;points=[];autosize=1;strokeColor=none;fillColor=none;fontFamily=Google Sans;fontSource=https%3A%2F%2Ffonts.googleapis.com%2Fcss%3Ffamily%3DGoogle%2BSans;fontColor=#FFFFFF;rotation=-90;fontStyle=1" parent="XFLzxQZfM_v2sXhXUsD--195" vertex="1">
          <mxGeometry x="-22.5" y="24.5" width="71" height="26" as="geometry" />
        </mxCell>
        <mxCell id="XFLzxQZfM_v2sXhXUsD--203" value="" style="group" parent="1" vertex="1" connectable="0">
          <mxGeometry x="1795.995" y="1114.5" width="76.245" height="101" as="geometry" />
        </mxCell>
        <mxCell id="XFLzxQZfM_v2sXhXUsD--204" value="" style="group;aspect=fixed;" parent="XFLzxQZfM_v2sXhXUsD--203" vertex="1" connectable="0">
          <mxGeometry width="75.49000000000001" height="75" as="geometry" />
        </mxCell>
        <mxCell id="XFLzxQZfM_v2sXhXUsD--205" value="" style="whiteSpace=wrap;html=1;aspect=fixed;fillColor=#001135;strokeColor=none;connectable=1;allowArrows=1;" parent="XFLzxQZfM_v2sXhXUsD--204" vertex="1">
          <mxGeometry x="0.24500000000000455" width="75" height="75" as="geometry" />
        </mxCell>
        <mxCell id="XFLzxQZfM_v2sXhXUsD--206" value="" style="endArrow=none;html=1;rounded=0;entryX=0.907;entryY=0.793;entryDx=0;entryDy=0;entryPerimeter=0;exitX=0.08;exitY=0.793;exitDx=0;exitDy=0;exitPerimeter=0;strokeColor=#FFFFFF;strokeWidth=2;" parent="XFLzxQZfM_v2sXhXUsD--204" edge="1">
          <mxGeometry width="50" height="50" relative="1" as="geometry">
            <mxPoint x="6.490000000000009" y="60.23500000000013" as="sourcePoint" />
            <mxPoint x="68.5150000000001" y="60.23500000000013" as="targetPoint" />
          </mxGeometry>
        </mxCell>
        <mxCell id="XFLzxQZfM_v2sXhXUsD--207" value="" style="rounded=1;whiteSpace=wrap;html=1;arcSize=14;fillColor=none;strokeColor=#FFFFFF;strokeWidth=2;" parent="XFLzxQZfM_v2sXhXUsD--204" vertex="1">
          <mxGeometry x="12.245000000000005" y="15.760000000000048" width="51" height="38.46" as="geometry" />
        </mxCell>
        <mxCell id="XFLzxQZfM_v2sXhXUsD--208" value="" style="ellipse;whiteSpace=wrap;html=1;aspect=fixed;strokeColor=none;" parent="XFLzxQZfM_v2sXhXUsD--204" vertex="1">
          <mxGeometry x="36.245000000000005" y="21.220000000000027" width="3" height="3" as="geometry" />
        </mxCell>
        <mxCell id="XFLzxQZfM_v2sXhXUsD--209" value="client1-dc2" style="text;html=1;align=center;verticalAlign=middle;resizable=0;points=[];autosize=1;strokeColor=none;fillColor=none;fontFamily=Google Sans;fontSource=https%3A%2F%2Ffonts.googleapis.com%2Fcss%3Ffamily%3DGoogle%2BSans;fontColor=#FFFFFF;fontStyle=1" parent="XFLzxQZfM_v2sXhXUsD--203" vertex="1">
          <mxGeometry x="-0.7549999999999955" y="75" width="77" height="26" as="geometry" />
        </mxCell>
        <mxCell id="XFLzxQZfM_v2sXhXUsD--210" value="" style="group" parent="1" vertex="1" connectable="0">
          <mxGeometry x="2225.24" y="1114.5" width="78" height="101" as="geometry" />
        </mxCell>
        <mxCell id="XFLzxQZfM_v2sXhXUsD--211" value="" style="group;aspect=fixed;" parent="XFLzxQZfM_v2sXhXUsD--210" vertex="1" connectable="0">
          <mxGeometry x="0.7549999999999955" width="75.49000000000001" height="75" as="geometry" />
        </mxCell>
        <mxCell id="XFLzxQZfM_v2sXhXUsD--212" value="" style="whiteSpace=wrap;html=1;aspect=fixed;fillColor=#001135;strokeColor=none;connectable=1;allowArrows=1;" parent="XFLzxQZfM_v2sXhXUsD--211" vertex="1">
          <mxGeometry x="0.24500000000000455" width="75" height="75" as="geometry" />
        </mxCell>
        <mxCell id="XFLzxQZfM_v2sXhXUsD--213" value="" style="endArrow=none;html=1;rounded=0;entryX=0.907;entryY=0.793;entryDx=0;entryDy=0;entryPerimeter=0;exitX=0.08;exitY=0.793;exitDx=0;exitDy=0;exitPerimeter=0;strokeColor=#FFFFFF;strokeWidth=2;" parent="XFLzxQZfM_v2sXhXUsD--211" edge="1">
          <mxGeometry width="50" height="50" relative="1" as="geometry">
            <mxPoint x="6.490000000000009" y="60.23500000000013" as="sourcePoint" />
            <mxPoint x="68.5150000000001" y="60.23500000000013" as="targetPoint" />
          </mxGeometry>
        </mxCell>
        <mxCell id="XFLzxQZfM_v2sXhXUsD--214" value="" style="rounded=1;whiteSpace=wrap;html=1;arcSize=14;fillColor=none;strokeColor=#FFFFFF;strokeWidth=2;" parent="XFLzxQZfM_v2sXhXUsD--211" vertex="1">
          <mxGeometry x="12.245000000000005" y="15.760000000000048" width="51" height="38.46" as="geometry" />
        </mxCell>
        <mxCell id="XFLzxQZfM_v2sXhXUsD--215" value="" style="ellipse;whiteSpace=wrap;html=1;aspect=fixed;strokeColor=none;" parent="XFLzxQZfM_v2sXhXUsD--211" vertex="1">
          <mxGeometry x="36.245000000000005" y="21.220000000000027" width="3" height="3" as="geometry" />
        </mxCell>
        <mxCell id="XFLzxQZfM_v2sXhXUsD--216" value="client2-dc2" style="text;html=1;align=center;verticalAlign=middle;resizable=0;points=[];autosize=1;strokeColor=none;fillColor=none;fontFamily=Google Sans;fontSource=https%3A%2F%2Ffonts.googleapis.com%2Fcss%3Ffamily%3DGoogle%2BSans;fontColor=#FFFFFF;fontStyle=1" parent="XFLzxQZfM_v2sXhXUsD--210" vertex="1">
          <mxGeometry x="-1" y="75" width="79" height="26" as="geometry" />
        </mxCell>
        <mxCell id="XFLzxQZfM_v2sXhXUsD--217" value="e1-31" style="rounded=1;whiteSpace=wrap;html=1;fontFamily=Google Sans;fontSource=https%3A%2F%2Ffonts.googleapis.com%2Fcss%3Ffamily%3DGoogle%2BSans;arcSize=32;spacing=0;spacingBottom=1;fillColor=#f5f5f5;fontColor=#333333;strokeColor=#98A2AE;fontSize=10;" parent="1" vertex="1">
          <mxGeometry x="1859.24" y="931.5" width="25" height="13" as="geometry" />
        </mxCell>
        <mxCell id="XFLzxQZfM_v2sXhXUsD--218" value="e1-32" style="rounded=1;whiteSpace=wrap;html=1;fontFamily=Google Sans;fontSource=https%3A%2F%2Ffonts.googleapis.com%2Fcss%3Ffamily%3DGoogle%2BSans;arcSize=32;spacing=0;spacingBottom=1;fillColor=#f5f5f5;fontColor=#333333;strokeColor=#98A2AE;fontSize=10;" parent="1" vertex="1">
          <mxGeometry x="1893.24" y="931.5" width="25" height="13" as="geometry" />
        </mxCell>
        <mxCell id="XFLzxQZfM_v2sXhXUsD--219" value="e1-31" style="rounded=1;whiteSpace=wrap;html=1;fontFamily=Google Sans;fontSource=https%3A%2F%2Ffonts.googleapis.com%2Fcss%3Ffamily%3DGoogle%2BSans;arcSize=32;spacing=0;spacingBottom=1;fillColor=#f5f5f5;fontColor=#333333;strokeColor=#98A2AE;fontSize=10;" parent="1" vertex="1">
          <mxGeometry x="1967.24" y="931.5" width="25" height="13" as="geometry" />
        </mxCell>
        <mxCell id="XFLzxQZfM_v2sXhXUsD--220" value="e1-32" style="rounded=1;whiteSpace=wrap;html=1;fontFamily=Google Sans;fontSource=https%3A%2F%2Ffonts.googleapis.com%2Fcss%3Ffamily%3DGoogle%2BSans;arcSize=32;spacing=0;spacingBottom=1;fillColor=#f5f5f5;fontColor=#333333;strokeColor=#98A2AE;fontSize=10;" parent="1" vertex="1">
          <mxGeometry x="2001.24" y="931.5" width="25" height="13" as="geometry" />
        </mxCell>
        <mxCell id="XFLzxQZfM_v2sXhXUsD--221" value="e1-31" style="rounded=1;whiteSpace=wrap;html=1;fontFamily=Google Sans;fontSource=https%3A%2F%2Ffonts.googleapis.com%2Fcss%3Ffamily%3DGoogle%2BSans;arcSize=32;spacing=0;spacingBottom=1;fillColor=#f5f5f5;fontColor=#333333;strokeColor=#98A2AE;fontSize=10;" parent="1" vertex="1">
          <mxGeometry x="2082.24" y="931.5" width="25" height="13" as="geometry" />
        </mxCell>
        <mxCell id="XFLzxQZfM_v2sXhXUsD--222" value="e1-32" style="rounded=1;whiteSpace=wrap;html=1;fontFamily=Google Sans;fontSource=https%3A%2F%2Ffonts.googleapis.com%2Fcss%3Ffamily%3DGoogle%2BSans;arcSize=32;spacing=0;spacingBottom=1;fillColor=#f5f5f5;fontColor=#333333;strokeColor=#98A2AE;fontSize=10;" parent="1" vertex="1">
          <mxGeometry x="2116.24" y="931.5" width="25" height="13" as="geometry" />
        </mxCell>
        <mxCell id="XFLzxQZfM_v2sXhXUsD--223" value="e1-31" style="rounded=1;whiteSpace=wrap;html=1;fontFamily=Google Sans;fontSource=https%3A%2F%2Ffonts.googleapis.com%2Fcss%3Ffamily%3DGoogle%2BSans;arcSize=32;spacing=0;spacingBottom=1;fillColor=#f5f5f5;fontColor=#333333;strokeColor=#98A2AE;fontSize=10;" parent="1" vertex="1">
          <mxGeometry x="2185.24" y="931.5" width="25" height="13" as="geometry" />
        </mxCell>
        <mxCell id="XFLzxQZfM_v2sXhXUsD--224" value="e1-32" style="rounded=1;whiteSpace=wrap;html=1;fontFamily=Google Sans;fontSource=https%3A%2F%2Ffonts.googleapis.com%2Fcss%3Ffamily%3DGoogle%2BSans;arcSize=32;spacing=0;spacingBottom=1;fillColor=#f5f5f5;fontColor=#333333;strokeColor=#98A2AE;fontSize=10;" parent="1" vertex="1">
          <mxGeometry x="2219.24" y="931.5" width="25" height="13" as="geometry" />
        </mxCell>
        <mxCell id="XFLzxQZfM_v2sXhXUsD--225" value="" style="group;fontStyle=1" parent="1" vertex="1" connectable="0">
          <mxGeometry x="1933.24" y="745.5" width="101" height="75" as="geometry" />
        </mxCell>
        <mxCell id="XFLzxQZfM_v2sXhXUsD--226" value="" style="group;aspect=fixed;fontStyle=1" parent="XFLzxQZfM_v2sXhXUsD--225" vertex="1" connectable="0">
          <mxGeometry x="26" width="75" height="75" as="geometry" />
        </mxCell>
        <mxCell id="XFLzxQZfM_v2sXhXUsD--227" value="" style="whiteSpace=wrap;html=1;aspect=fixed;fillColor=#001135;strokeColor=none;connectable=1;allowArrows=1;fontStyle=1" parent="XFLzxQZfM_v2sXhXUsD--226" vertex="1">
          <mxGeometry width="75" height="75" as="geometry" />
        </mxCell>
        <mxCell id="XFLzxQZfM_v2sXhXUsD--228" value="" style="endArrow=open;html=1;edgeStyle=orthogonalEdgeStyle;rounded=0;endFill=0;startSize=6;endSize=6;strokeColor=#FFFFFF;strokeWidth=2;fontStyle=1" parent="XFLzxQZfM_v2sXhXUsD--226" edge="1">
          <mxGeometry width="50" height="50" relative="1" as="geometry">
            <mxPoint x="7.5" y="30" as="sourcePoint" />
            <mxPoint x="27.499999999999996" y="7.5" as="targetPoint" />
            <Array as="points">
              <mxPoint x="27.499999999999996" y="30" />
            </Array>
          </mxGeometry>
        </mxCell>
        <mxCell id="XFLzxQZfM_v2sXhXUsD--229" value="" style="endArrow=open;html=1;edgeStyle=orthogonalEdgeStyle;rounded=0;endFill=0;startSize=6;endSize=6;strokeColor=#FFFFFF;strokeWidth=2;fontStyle=1" parent="XFLzxQZfM_v2sXhXUsD--226" edge="1">
          <mxGeometry width="50" height="50" relative="1" as="geometry">
            <mxPoint x="27.499999999999996" y="67.5" as="sourcePoint" />
            <mxPoint x="7.5" y="47.49999999999999" as="targetPoint" />
            <Array as="points">
              <mxPoint x="27.499999999999996" y="47.49999999999999" />
            </Array>
          </mxGeometry>
        </mxCell>
        <mxCell id="XFLzxQZfM_v2sXhXUsD--230" value="" style="endArrow=open;html=1;edgeStyle=orthogonalEdgeStyle;rounded=0;endFill=0;startSize=6;endSize=6;strokeColor=#FFFFFF;strokeWidth=2;fontStyle=1" parent="XFLzxQZfM_v2sXhXUsD--226" edge="1">
          <mxGeometry width="50" height="50" relative="1" as="geometry">
            <mxPoint x="44.99999999999999" y="7.5" as="sourcePoint" />
            <mxPoint x="67.5" y="30" as="targetPoint" />
            <Array as="points">
              <mxPoint x="44.99999999999999" y="30" />
            </Array>
          </mxGeometry>
        </mxCell>
        <mxCell id="XFLzxQZfM_v2sXhXUsD--231" value="" style="endArrow=open;html=1;edgeStyle=orthogonalEdgeStyle;rounded=0;endFill=0;startSize=6;endSize=6;strokeColor=#FFFFFF;strokeWidth=2;fontStyle=1" parent="XFLzxQZfM_v2sXhXUsD--226" edge="1">
          <mxGeometry width="50" height="50" relative="1" as="geometry">
            <mxPoint x="67.5" y="47.49999999999999" as="sourcePoint" />
            <mxPoint x="44.99999999999999" y="67.5" as="targetPoint" />
            <Array as="points">
              <mxPoint x="44.99999999999999" y="47.49999999999999" />
            </Array>
          </mxGeometry>
        </mxCell>
        <mxCell id="XFLzxQZfM_v2sXhXUsD--232" value="spine1-dc2" style="text;html=1;align=center;verticalAlign=middle;resizable=0;points=[];autosize=1;strokeColor=none;fillColor=none;fontFamily=Google Sans;fontSource=https%3A%2F%2Ffonts.googleapis.com%2Fcss%3Ffamily%3DGoogle%2BSans;fontColor=#FFFFFF;rotation=-90;fontStyle=1" parent="XFLzxQZfM_v2sXhXUsD--225" vertex="1">
          <mxGeometry x="-25" y="24.500000000000057" width="77" height="26" as="geometry" />
        </mxCell>
        <mxCell id="XFLzxQZfM_v2sXhXUsD--233" value="" style="group;fontStyle=1" parent="1" vertex="1" connectable="0">
          <mxGeometry x="2070.24" y="745.5" width="101" height="75" as="geometry" />
        </mxCell>
        <mxCell id="XFLzxQZfM_v2sXhXUsD--234" value="" style="group;aspect=fixed;fontStyle=1" parent="XFLzxQZfM_v2sXhXUsD--233" vertex="1" connectable="0">
          <mxGeometry x="26" width="75" height="75" as="geometry" />
        </mxCell>
        <mxCell id="XFLzxQZfM_v2sXhXUsD--235" value="" style="whiteSpace=wrap;html=1;aspect=fixed;fillColor=#001135;strokeColor=none;connectable=1;allowArrows=1;fontStyle=1" parent="XFLzxQZfM_v2sXhXUsD--234" vertex="1">
          <mxGeometry width="75" height="75" as="geometry" />
        </mxCell>
        <mxCell id="XFLzxQZfM_v2sXhXUsD--236" value="" style="endArrow=open;html=1;edgeStyle=orthogonalEdgeStyle;rounded=0;endFill=0;startSize=6;endSize=6;strokeColor=#FFFFFF;strokeWidth=2;fontStyle=1" parent="XFLzxQZfM_v2sXhXUsD--234" edge="1">
          <mxGeometry width="50" height="50" relative="1" as="geometry">
            <mxPoint x="7.5" y="30" as="sourcePoint" />
            <mxPoint x="27.499999999999996" y="7.5" as="targetPoint" />
            <Array as="points">
              <mxPoint x="27.499999999999996" y="30" />
            </Array>
          </mxGeometry>
        </mxCell>
        <mxCell id="XFLzxQZfM_v2sXhXUsD--237" value="" style="endArrow=open;html=1;edgeStyle=orthogonalEdgeStyle;rounded=0;endFill=0;startSize=6;endSize=6;strokeColor=#FFFFFF;strokeWidth=2;fontStyle=1" parent="XFLzxQZfM_v2sXhXUsD--234" edge="1">
          <mxGeometry width="50" height="50" relative="1" as="geometry">
            <mxPoint x="27.499999999999996" y="67.5" as="sourcePoint" />
            <mxPoint x="7.5" y="47.49999999999999" as="targetPoint" />
            <Array as="points">
              <mxPoint x="27.499999999999996" y="47.49999999999999" />
            </Array>
          </mxGeometry>
        </mxCell>
        <mxCell id="XFLzxQZfM_v2sXhXUsD--238" value="" style="endArrow=open;html=1;edgeStyle=orthogonalEdgeStyle;rounded=0;endFill=0;startSize=6;endSize=6;strokeColor=#FFFFFF;strokeWidth=2;fontStyle=1" parent="XFLzxQZfM_v2sXhXUsD--234" edge="1">
          <mxGeometry width="50" height="50" relative="1" as="geometry">
            <mxPoint x="44.99999999999999" y="7.5" as="sourcePoint" />
            <mxPoint x="67.5" y="30" as="targetPoint" />
            <Array as="points">
              <mxPoint x="44.99999999999999" y="30" />
            </Array>
          </mxGeometry>
        </mxCell>
        <mxCell id="XFLzxQZfM_v2sXhXUsD--239" value="" style="endArrow=open;html=1;edgeStyle=orthogonalEdgeStyle;rounded=0;endFill=0;startSize=6;endSize=6;strokeColor=#FFFFFF;strokeWidth=2;fontStyle=1" parent="XFLzxQZfM_v2sXhXUsD--234" edge="1">
          <mxGeometry width="50" height="50" relative="1" as="geometry">
            <mxPoint x="67.5" y="47.49999999999999" as="sourcePoint" />
            <mxPoint x="44.99999999999999" y="67.5" as="targetPoint" />
            <Array as="points">
              <mxPoint x="44.99999999999999" y="47.49999999999999" />
            </Array>
          </mxGeometry>
        </mxCell>
        <mxCell id="XFLzxQZfM_v2sXhXUsD--240" value="spine2-dc2" style="text;html=1;align=center;verticalAlign=middle;resizable=0;points=[];autosize=1;strokeColor=none;fillColor=none;fontFamily=Google Sans;fontSource=https%3A%2F%2Ffonts.googleapis.com%2Fcss%3Ffamily%3DGoogle%2BSans;fontColor=#FFFFFF;rotation=-90;fontStyle=1" parent="XFLzxQZfM_v2sXhXUsD--233" vertex="1">
          <mxGeometry x="-26" y="24.500000000000057" width="79" height="26" as="geometry" />
        </mxCell>
        <mxCell id="XFLzxQZfM_v2sXhXUsD--241" value="e1-3" style="rounded=1;whiteSpace=wrap;html=1;fontFamily=Google Sans;fontSource=https%3A%2F%2Ffonts.googleapis.com%2Fcss%3Ffamily%3DGoogle%2BSans;arcSize=32;spacing=0;spacingBottom=1;fillColor=#f5f5f5;fontColor=#333333;strokeColor=#98A2AE;fontSize=10;" parent="1" vertex="1">
          <mxGeometry x="1952.24" y="839.5" width="25" height="13" as="geometry" />
        </mxCell>
        <mxCell id="XFLzxQZfM_v2sXhXUsD--242" value="e1-4" style="rounded=1;whiteSpace=wrap;html=1;fontFamily=Google Sans;fontSource=https%3A%2F%2Ffonts.googleapis.com%2Fcss%3Ffamily%3DGoogle%2BSans;arcSize=32;spacing=0;spacingBottom=1;fillColor=#f5f5f5;fontColor=#333333;strokeColor=#98A2AE;fontSize=10;" parent="1" vertex="1">
          <mxGeometry x="1976.24" y="854.5" width="25" height="13" as="geometry" />
        </mxCell>
        <mxCell id="XFLzxQZfM_v2sXhXUsD--243" value="e1-5" style="rounded=1;whiteSpace=wrap;html=1;fontFamily=Google Sans;fontSource=https%3A%2F%2Ffonts.googleapis.com%2Fcss%3Ffamily%3DGoogle%2BSans;arcSize=32;spacing=0;spacingBottom=1;fillColor=#f5f5f5;fontColor=#333333;strokeColor=#98A2AE;fontSize=10;" parent="1" vertex="1">
          <mxGeometry x="2016.24" y="854.5" width="25" height="13" as="geometry" />
        </mxCell>
        <mxCell id="XFLzxQZfM_v2sXhXUsD--244" value="e1-6" style="rounded=1;whiteSpace=wrap;html=1;fontFamily=Google Sans;fontSource=https%3A%2F%2Ffonts.googleapis.com%2Fcss%3Ffamily%3DGoogle%2BSans;arcSize=32;spacing=0;spacingBottom=1;fillColor=#f5f5f5;fontColor=#333333;strokeColor=#98A2AE;fontSize=10;" parent="1" vertex="1">
          <mxGeometry x="2023.24" y="836.5" width="25" height="13" as="geometry" />
        </mxCell>
        <mxCell id="XFLzxQZfM_v2sXhXUsD--245" value="e1-3" style="rounded=1;whiteSpace=wrap;html=1;fontFamily=Google Sans;fontSource=https%3A%2F%2Ffonts.googleapis.com%2Fcss%3Ffamily%3DGoogle%2BSans;arcSize=32;spacing=0;spacingBottom=1;fillColor=#f5f5f5;fontColor=#333333;strokeColor=#98A2AE;fontSize=10;" parent="1" vertex="1">
          <mxGeometry x="2068.24" y="839.5" width="25" height="13" as="geometry" />
        </mxCell>
        <mxCell id="XFLzxQZfM_v2sXhXUsD--246" value="e1-4" style="rounded=1;whiteSpace=wrap;html=1;fontFamily=Google Sans;fontSource=https%3A%2F%2Ffonts.googleapis.com%2Fcss%3Ffamily%3DGoogle%2BSans;arcSize=32;spacing=0;spacingBottom=1;fillColor=#f5f5f5;fontColor=#333333;strokeColor=#98A2AE;fontSize=10;" parent="1" vertex="1">
          <mxGeometry x="2082.24" y="854.5" width="25" height="13" as="geometry" />
        </mxCell>
        <mxCell id="XFLzxQZfM_v2sXhXUsD--247" value="e1-5" style="rounded=1;whiteSpace=wrap;html=1;fontFamily=Google Sans;fontSource=https%3A%2F%2Ffonts.googleapis.com%2Fcss%3Ffamily%3DGoogle%2BSans;arcSize=32;spacing=0;spacingBottom=1;fillColor=#f5f5f5;fontColor=#333333;strokeColor=#98A2AE;fontSize=10;" parent="1" vertex="1">
          <mxGeometry x="2117.24" y="854.5" width="25" height="13" as="geometry" />
        </mxCell>
        <mxCell id="XFLzxQZfM_v2sXhXUsD--248" value="e1-6" style="rounded=1;whiteSpace=wrap;html=1;fontFamily=Google Sans;fontSource=https%3A%2F%2Ffonts.googleapis.com%2Fcss%3Ffamily%3DGoogle%2BSans;arcSize=32;spacing=0;spacingBottom=1;fillColor=#f5f5f5;fontColor=#333333;strokeColor=#98A2AE;fontSize=10;" parent="1" vertex="1">
          <mxGeometry x="2142.24" y="839.5" width="25" height="13" as="geometry" />
        </mxCell>
        <mxCell id="XFLzxQZfM_v2sXhXUsD--249" value="" style="group;fontStyle=1" parent="1" vertex="1" connectable="0">
          <mxGeometry x="1931.24" y="533" width="101" height="76" as="geometry" />
        </mxCell>
        <mxCell id="XFLzxQZfM_v2sXhXUsD--250" value="" style="group;fontStyle=1" parent="XFLzxQZfM_v2sXhXUsD--249" vertex="1" connectable="0">
          <mxGeometry x="26" y="0.4999999999999716" width="75" height="75.00000000000006" as="geometry" />
        </mxCell>
        <mxCell id="XFLzxQZfM_v2sXhXUsD--251" value="" style="whiteSpace=wrap;html=1;aspect=fixed;fillColor=#124191;strokeColor=none;connectable=1;allowArrows=1;fontStyle=1" parent="XFLzxQZfM_v2sXhXUsD--250" vertex="1">
          <mxGeometry width="75" height="75" as="geometry" />
        </mxCell>
        <mxCell id="XFLzxQZfM_v2sXhXUsD--252" value="" style="endArrow=open;html=1;rounded=0;endFill=0;startSize=6;endSize=6;strokeColor=#FFFFFF;strokeWidth=2;entryX=0.56;entryY=0.441;entryDx=0;entryDy=0;entryPerimeter=0;exitX=0.84;exitY=0.161;exitDx=0;exitDy=0;exitPerimeter=0;fontStyle=1" parent="XFLzxQZfM_v2sXhXUsD--250" source="XFLzxQZfM_v2sXhXUsD--251" target="XFLzxQZfM_v2sXhXUsD--251" edge="1">
          <mxGeometry width="50" height="50" relative="1" as="geometry">
            <mxPoint x="63" y="12.069999999999993" as="sourcePoint" />
            <mxPoint x="43" y="32.06999999999999" as="targetPoint" />
          </mxGeometry>
        </mxCell>
        <mxCell id="XFLzxQZfM_v2sXhXUsD--253" value="" style="endArrow=open;html=1;rounded=0;endFill=0;startSize=6;endSize=6;strokeColor=#FFFFFF;strokeWidth=2;entryX=0.44;entryY=0.561;entryDx=0;entryDy=0;entryPerimeter=0;exitX=0.16;exitY=0.841;exitDx=0;exitDy=0;exitPerimeter=0;fontStyle=1" parent="XFLzxQZfM_v2sXhXUsD--250" edge="1">
          <mxGeometry width="50" height="50" relative="1" as="geometry">
            <mxPoint x="11.999999999999943" y="63.07500000000033" as="sourcePoint" />
            <mxPoint x="33" y="42.0750000000001" as="targetPoint" />
          </mxGeometry>
        </mxCell>
        <mxCell id="XFLzxQZfM_v2sXhXUsD--254" value="" style="endArrow=open;html=1;rounded=0;endFill=0;startSize=6;endSize=6;strokeColor=#FFFFFF;strokeWidth=2;entryX=0.173;entryY=0.174;entryDx=0;entryDy=0;entryPerimeter=0;exitX=0.44;exitY=0.441;exitDx=0;exitDy=0;exitPerimeter=0;fontStyle=1" parent="XFLzxQZfM_v2sXhXUsD--250" source="XFLzxQZfM_v2sXhXUsD--251" target="XFLzxQZfM_v2sXhXUsD--251" edge="1">
          <mxGeometry width="50" height="50" relative="1" as="geometry">
            <mxPoint x="65" y="14.069999999999993" as="sourcePoint" />
            <mxPoint x="44" y="35.06999999999999" as="targetPoint" />
          </mxGeometry>
        </mxCell>
        <mxCell id="XFLzxQZfM_v2sXhXUsD--255" value="" style="endArrow=open;html=1;rounded=0;endFill=0;startSize=6;endSize=6;strokeColor=#FFFFFF;strokeWidth=2;entryX=0.827;entryY=0.828;entryDx=0;entryDy=0;entryPerimeter=0;fontStyle=1" parent="XFLzxQZfM_v2sXhXUsD--250" target="XFLzxQZfM_v2sXhXUsD--251" edge="1">
          <mxGeometry width="50" height="50" relative="1" as="geometry">
            <mxPoint x="42" y="42.06999999999999" as="sourcePoint" />
            <mxPoint x="15" y="15.069999999999993" as="targetPoint" />
          </mxGeometry>
        </mxCell>
        <mxCell id="XFLzxQZfM_v2sXhXUsD--256" value="dcgw1-dc2" style="text;html=1;align=center;verticalAlign=middle;resizable=0;points=[];autosize=1;strokeColor=none;fillColor=none;fontFamily=Google Sans;fontSource=https%3A%2F%2Ffonts.googleapis.com%2Fcss%3Ffamily%3DGoogle%2BSans;fontColor=#FFFFFF;rotation=-90;fontStyle=1" parent="XFLzxQZfM_v2sXhXUsD--249" vertex="1">
          <mxGeometry x="-26" y="25" width="78" height="26" as="geometry" />
        </mxCell>
        <mxCell id="XFLzxQZfM_v2sXhXUsD--257" value="" style="group;fontStyle=1" parent="1" vertex="1" connectable="0">
          <mxGeometry x="2069.24" y="532" width="101" height="78" as="geometry" />
        </mxCell>
        <mxCell id="XFLzxQZfM_v2sXhXUsD--258" value="" style="group;fontStyle=1" parent="XFLzxQZfM_v2sXhXUsD--257" vertex="1" connectable="0">
          <mxGeometry x="26" y="1.4999999999999716" width="75" height="75.00000000000006" as="geometry" />
        </mxCell>
        <mxCell id="XFLzxQZfM_v2sXhXUsD--259" value="" style="whiteSpace=wrap;html=1;aspect=fixed;fillColor=#124191;strokeColor=none;connectable=1;allowArrows=1;fontStyle=1" parent="XFLzxQZfM_v2sXhXUsD--258" vertex="1">
          <mxGeometry width="75" height="75" as="geometry" />
        </mxCell>
        <mxCell id="XFLzxQZfM_v2sXhXUsD--260" value="" style="endArrow=open;html=1;rounded=0;endFill=0;startSize=6;endSize=6;strokeColor=#FFFFFF;strokeWidth=2;entryX=0.56;entryY=0.441;entryDx=0;entryDy=0;entryPerimeter=0;exitX=0.84;exitY=0.161;exitDx=0;exitDy=0;exitPerimeter=0;fontStyle=1" parent="XFLzxQZfM_v2sXhXUsD--258" source="XFLzxQZfM_v2sXhXUsD--259" target="XFLzxQZfM_v2sXhXUsD--259" edge="1">
          <mxGeometry width="50" height="50" relative="1" as="geometry">
            <mxPoint x="63" y="12.069999999999993" as="sourcePoint" />
            <mxPoint x="43" y="32.06999999999999" as="targetPoint" />
          </mxGeometry>
        </mxCell>
        <mxCell id="XFLzxQZfM_v2sXhXUsD--261" value="" style="endArrow=open;html=1;rounded=0;endFill=0;startSize=6;endSize=6;strokeColor=#FFFFFF;strokeWidth=2;entryX=0.44;entryY=0.561;entryDx=0;entryDy=0;entryPerimeter=0;exitX=0.16;exitY=0.841;exitDx=0;exitDy=0;exitPerimeter=0;fontStyle=1" parent="XFLzxQZfM_v2sXhXUsD--258" edge="1">
          <mxGeometry width="50" height="50" relative="1" as="geometry">
            <mxPoint x="11.999999999999943" y="63.07500000000033" as="sourcePoint" />
            <mxPoint x="33" y="42.0750000000001" as="targetPoint" />
          </mxGeometry>
        </mxCell>
        <mxCell id="XFLzxQZfM_v2sXhXUsD--262" value="" style="endArrow=open;html=1;rounded=0;endFill=0;startSize=6;endSize=6;strokeColor=#FFFFFF;strokeWidth=2;entryX=0.173;entryY=0.174;entryDx=0;entryDy=0;entryPerimeter=0;exitX=0.44;exitY=0.441;exitDx=0;exitDy=0;exitPerimeter=0;fontStyle=1" parent="XFLzxQZfM_v2sXhXUsD--258" source="XFLzxQZfM_v2sXhXUsD--259" target="XFLzxQZfM_v2sXhXUsD--259" edge="1">
          <mxGeometry width="50" height="50" relative="1" as="geometry">
            <mxPoint x="65" y="14.069999999999993" as="sourcePoint" />
            <mxPoint x="44" y="35.06999999999999" as="targetPoint" />
          </mxGeometry>
        </mxCell>
        <mxCell id="XFLzxQZfM_v2sXhXUsD--263" value="" style="endArrow=open;html=1;rounded=0;endFill=0;startSize=6;endSize=6;strokeColor=#FFFFFF;strokeWidth=2;entryX=0.827;entryY=0.828;entryDx=0;entryDy=0;entryPerimeter=0;fontStyle=1" parent="XFLzxQZfM_v2sXhXUsD--258" target="XFLzxQZfM_v2sXhXUsD--259" edge="1">
          <mxGeometry width="50" height="50" relative="1" as="geometry">
            <mxPoint x="42" y="42.06999999999999" as="sourcePoint" />
            <mxPoint x="15" y="15.069999999999993" as="targetPoint" />
          </mxGeometry>
        </mxCell>
        <mxCell id="XFLzxQZfM_v2sXhXUsD--264" value="dcgw2-dc2" style="text;html=1;align=center;verticalAlign=middle;resizable=0;points=[];autosize=1;strokeColor=none;fillColor=none;fontFamily=Google Sans;fontSource=https%3A%2F%2Ffonts.googleapis.com%2Fcss%3Ffamily%3DGoogle%2BSans;fontColor=#FFFFFF;rotation=-90;fontStyle=1" parent="XFLzxQZfM_v2sXhXUsD--257" vertex="1">
          <mxGeometry x="-27" y="26" width="80" height="26" as="geometry" />
        </mxCell>
        <mxCell id="XFLzxQZfM_v2sXhXUsD--265" value="eth3" style="rounded=1;whiteSpace=wrap;html=1;fontFamily=Google Sans;fontSource=https%3A%2F%2Ffonts.googleapis.com%2Fcss%3Ffamily%3DGoogle%2BSans;arcSize=32;spacing=0;spacingBottom=1;fillColor=#f5f5f5;fontColor=#333333;strokeColor=#98A2AE;fontSize=10;" parent="1" vertex="1">
          <mxGeometry x="1981.24" y="639.5" width="25" height="13" as="geometry" />
        </mxCell>
        <mxCell id="XFLzxQZfM_v2sXhXUsD--266" value="eth2" style="rounded=1;whiteSpace=wrap;html=1;fontFamily=Google Sans;fontSource=https%3A%2F%2Ffonts.googleapis.com%2Fcss%3Ffamily%3DGoogle%2BSans;arcSize=32;spacing=0;spacingBottom=1;fillColor=#f5f5f5;fontColor=#333333;strokeColor=#98A2AE;fontSize=10;" parent="1" vertex="1">
          <mxGeometry x="2016.24" y="639.5" width="25" height="13" as="geometry" />
        </mxCell>
        <mxCell id="XFLzxQZfM_v2sXhXUsD--267" value="eth3" style="rounded=1;whiteSpace=wrap;html=1;fontFamily=Google Sans;fontSource=https%3A%2F%2Ffonts.googleapis.com%2Fcss%3Ffamily%3DGoogle%2BSans;arcSize=32;spacing=0;spacingBottom=1;fillColor=#f5f5f5;fontColor=#333333;strokeColor=#98A2AE;fontSize=10;" parent="1" vertex="1">
          <mxGeometry x="2086.24" y="639.5" width="25" height="13" as="geometry" />
        </mxCell>
        <mxCell id="XFLzxQZfM_v2sXhXUsD--268" value="eth2" style="rounded=1;whiteSpace=wrap;html=1;fontFamily=Google Sans;fontSource=https%3A%2F%2Ffonts.googleapis.com%2Fcss%3Ffamily%3DGoogle%2BSans;arcSize=32;spacing=0;spacingBottom=1;fillColor=#f5f5f5;fontColor=#333333;strokeColor=#98A2AE;fontSize=10;" parent="1" vertex="1">
          <mxGeometry x="2121.24" y="639.5" width="25" height="13" as="geometry" />
        </mxCell>
        <mxCell id="XFLzxQZfM_v2sXhXUsD--269" value="e1-31" style="rounded=1;whiteSpace=wrap;html=1;fontFamily=Google Sans;fontSource=https%3A%2F%2Ffonts.googleapis.com%2Fcss%3Ffamily%3DGoogle%2BSans;arcSize=32;spacing=0;spacingBottom=1;fillColor=#f5f5f5;fontColor=#333333;strokeColor=#98A2AE;fontSize=10;" parent="1" vertex="1">
          <mxGeometry x="1981.24" y="704.5" width="27" height="13" as="geometry" />
        </mxCell>
        <mxCell id="XFLzxQZfM_v2sXhXUsD--270" value="e1-32" style="rounded=1;whiteSpace=wrap;html=1;fontFamily=Google Sans;fontSource=https%3A%2F%2Ffonts.googleapis.com%2Fcss%3Ffamily%3DGoogle%2BSans;arcSize=32;spacing=0;spacingBottom=1;fillColor=#f5f5f5;fontColor=#333333;strokeColor=#98A2AE;fontSize=10;" parent="1" vertex="1">
          <mxGeometry x="2016.24" y="704.5" width="27" height="13" as="geometry" />
        </mxCell>
        <mxCell id="XFLzxQZfM_v2sXhXUsD--271" value="e1-31" style="rounded=1;whiteSpace=wrap;html=1;fontFamily=Google Sans;fontSource=https%3A%2F%2Ffonts.googleapis.com%2Fcss%3Ffamily%3DGoogle%2BSans;arcSize=32;spacing=0;spacingBottom=1;fillColor=#f5f5f5;fontColor=#333333;strokeColor=#98A2AE;fontSize=10;" parent="1" vertex="1">
          <mxGeometry x="2084.24" y="704.5" width="27" height="13" as="geometry" />
        </mxCell>
        <mxCell id="XFLzxQZfM_v2sXhXUsD--272" value="e1-32" style="rounded=1;whiteSpace=wrap;html=1;fontFamily=Google Sans;fontSource=https%3A%2F%2Ffonts.googleapis.com%2Fcss%3Ffamily%3DGoogle%2BSans;arcSize=32;spacing=0;spacingBottom=1;fillColor=#f5f5f5;fontColor=#333333;strokeColor=#98A2AE;fontSize=10;" parent="1" vertex="1">
          <mxGeometry x="2119.24" y="704.5" width="27" height="13" as="geometry" />
        </mxCell>
        <mxCell id="XFLzxQZfM_v2sXhXUsD--273" value="eth1" style="rounded=1;whiteSpace=wrap;html=1;fontFamily=Google Sans;fontSource=https%3A%2F%2Ffonts.googleapis.com%2Fcss%3Ffamily%3DGoogle%2BSans;arcSize=32;spacing=0;spacingBottom=1;fillColor=#f5f5f5;fontColor=#333333;strokeColor=#98A2AE;fontSize=10;" parent="1" vertex="1">
          <mxGeometry x="1974.24" y="496.5" width="25" height="13" as="geometry" />
        </mxCell>
        <mxCell id="XFLzxQZfM_v2sXhXUsD--274" value="eth1" style="rounded=1;whiteSpace=wrap;html=1;fontFamily=Google Sans;fontSource=https%3A%2F%2Ffonts.googleapis.com%2Fcss%3Ffamily%3DGoogle%2BSans;arcSize=32;spacing=0;spacingBottom=1;fillColor=#f5f5f5;fontColor=#333333;strokeColor=#98A2AE;fontSize=10;" parent="1" vertex="1">
          <mxGeometry x="2110" y="496.5" width="25" height="13" as="geometry" />
        </mxCell>
        <mxCell id="XFLzxQZfM_v2sXhXUsD--275" value="eth5" style="rounded=1;whiteSpace=wrap;html=1;fontFamily=Google Sans;fontSource=https%3A%2F%2Ffonts.googleapis.com%2Fcss%3Ffamily%3DGoogle%2BSans;arcSize=32;spacing=0;spacingBottom=1;fillColor=#f5f5f5;fontColor=#333333;strokeColor=#98A2AE;fontSize=10;" parent="1" vertex="1">
          <mxGeometry x="1801" y="432.5" width="25" height="13" as="geometry" />
        </mxCell>
        <mxCell id="XFLzxQZfM_v2sXhXUsD--276" value="eth6" style="rounded=1;whiteSpace=wrap;html=1;fontFamily=Google Sans;fontSource=https%3A%2F%2Ffonts.googleapis.com%2Fcss%3Ffamily%3DGoogle%2BSans;arcSize=32;spacing=0;spacingBottom=1;fillColor=#f5f5f5;fontColor=#333333;strokeColor=#98A2AE;fontSize=10;" parent="1" vertex="1">
          <mxGeometry x="1801" y="468.5" width="25" height="13" as="geometry" />
        </mxCell>
        <mxCell id="XFLzxQZfM_v2sXhXUsD--279" value="" style="group;fontStyle=1" parent="1" vertex="1" connectable="0">
          <mxGeometry x="1770" y="975.04" width="101.24000000000001" height="75" as="geometry" />
        </mxCell>
        <mxCell id="XFLzxQZfM_v2sXhXUsD--172" value="" style="group;aspect=fixed;fontStyle=1" parent="XFLzxQZfM_v2sXhXUsD--279" vertex="1" connectable="0">
          <mxGeometry x="26.24000000000001" width="75" height="75" as="geometry" />
        </mxCell>
        <mxCell id="XFLzxQZfM_v2sXhXUsD--173" value="" style="whiteSpace=wrap;html=1;aspect=fixed;fillColor=#001135;strokeColor=none;connectable=1;allowArrows=1;fontStyle=1" parent="XFLzxQZfM_v2sXhXUsD--172" vertex="1">
          <mxGeometry width="75" height="75" as="geometry" />
        </mxCell>
        <mxCell id="XFLzxQZfM_v2sXhXUsD--174" value="" style="endArrow=open;html=1;edgeStyle=orthogonalEdgeStyle;rounded=0;endFill=0;startSize=6;endSize=6;strokeColor=#FFFFFF;strokeWidth=2;fontStyle=1" parent="XFLzxQZfM_v2sXhXUsD--172" edge="1">
          <mxGeometry width="50" height="50" relative="1" as="geometry">
            <mxPoint x="7.5" y="30" as="sourcePoint" />
            <mxPoint x="27.499999999999996" y="7.5" as="targetPoint" />
            <Array as="points">
              <mxPoint x="27.499999999999996" y="30" />
            </Array>
          </mxGeometry>
        </mxCell>
        <mxCell id="XFLzxQZfM_v2sXhXUsD--175" value="" style="endArrow=open;html=1;edgeStyle=orthogonalEdgeStyle;rounded=0;endFill=0;startSize=6;endSize=6;strokeColor=#FFFFFF;strokeWidth=2;fontStyle=1" parent="XFLzxQZfM_v2sXhXUsD--172" edge="1">
          <mxGeometry width="50" height="50" relative="1" as="geometry">
            <mxPoint x="27.499999999999996" y="67.5" as="sourcePoint" />
            <mxPoint x="7.5" y="47.49999999999999" as="targetPoint" />
            <Array as="points">
              <mxPoint x="27.499999999999996" y="47.49999999999999" />
            </Array>
          </mxGeometry>
        </mxCell>
        <mxCell id="XFLzxQZfM_v2sXhXUsD--176" value="" style="endArrow=open;html=1;edgeStyle=orthogonalEdgeStyle;rounded=0;endFill=0;startSize=6;endSize=6;strokeColor=#FFFFFF;strokeWidth=2;fontStyle=1" parent="XFLzxQZfM_v2sXhXUsD--172" edge="1">
          <mxGeometry width="50" height="50" relative="1" as="geometry">
            <mxPoint x="44.99999999999999" y="7.5" as="sourcePoint" />
            <mxPoint x="67.5" y="30" as="targetPoint" />
            <Array as="points">
              <mxPoint x="44.99999999999999" y="30" />
            </Array>
          </mxGeometry>
        </mxCell>
        <mxCell id="XFLzxQZfM_v2sXhXUsD--177" value="" style="endArrow=open;html=1;edgeStyle=orthogonalEdgeStyle;rounded=0;endFill=0;startSize=6;endSize=6;strokeColor=#FFFFFF;strokeWidth=2;fontStyle=1" parent="XFLzxQZfM_v2sXhXUsD--172" edge="1">
          <mxGeometry width="50" height="50" relative="1" as="geometry">
            <mxPoint x="67.5" y="47.49999999999999" as="sourcePoint" />
            <mxPoint x="44.99999999999999" y="67.5" as="targetPoint" />
            <Array as="points">
              <mxPoint x="44.99999999999999" y="47.49999999999999" />
            </Array>
          </mxGeometry>
        </mxCell>
        <mxCell id="XFLzxQZfM_v2sXhXUsD--178" value="leaf1-dc2" style="text;html=1;align=center;verticalAlign=middle;resizable=0;points=[];autosize=1;strokeColor=none;fillColor=none;fontFamily=Google Sans;fontSource=https%3A%2F%2Ffonts.googleapis.com%2Fcss%3Ffamily%3DGoogle%2BSans;fontColor=#FFFFFF;rotation=-90;fontStyle=1" parent="XFLzxQZfM_v2sXhXUsD--279" vertex="1">
          <mxGeometry x="-21" y="24.500000000000057" width="68" height="26" as="geometry" />
        </mxCell>
      </root>
    </mxGraphModel>
  </diagram>
  <diagram name="VRF composition" id="9Y49sK9ZjhoreLjhPG0a">
    <mxGraphModel dx="1659" dy="924" grid="1" gridSize="2" guides="1" tooltips="1" connect="1" arrows="1" fold="1" page="1" pageScale="1" pageWidth="3300" pageHeight="4681" background="#4D5766" math="0" shadow="0">
      <root>
        <mxCell id="17fbx9JNhlAnguyRdzwW-0" />
        <mxCell id="17fbx9JNhlAnguyRdzwW-1" parent="17fbx9JNhlAnguyRdzwW-0" />
        <mxCell id="ywT9E99J_NDp3-aMBiTF-2" value="DC2" style="points=[[0,0],[0.25,0],[0.5,0],[0.75,0],[1,0],[1,0.25],[1,0.5],[1,0.75],[1,1],[0.75,1],[0.5,1],[0.25,1],[0,1],[0,0.75],[0,0.5],[0,0.25]];outlineConnect=0;html=1;whiteSpace=wrap;fontSize=12;fontStyle=0;container=1;pointerEvents=0;collapsible=0;recursiveResize=0;shape=mxgraph.aws4.group;grIcon=mxgraph.aws4.group_aws_cloud;strokeColor=#d6b656;fillColor=#fff2cc;verticalAlign=top;align=left;spacingLeft=30;dashed=0;" vertex="1" parent="17fbx9JNhlAnguyRdzwW-1">
          <mxGeometry x="680" y="370" width="330" height="260" as="geometry" />
        </mxCell>
        <mxCell id="0o2wJ7BKKzap-cEXDgxu-11" value="" style="group;aspect=fixed;" vertex="1" connectable="0" parent="ywT9E99J_NDp3-aMBiTF-2">
          <mxGeometry x="51.99500000000012" y="120" width="75.49000000000001" height="75" as="geometry" />
        </mxCell>
        <mxCell id="0o2wJ7BKKzap-cEXDgxu-12" value="" style="whiteSpace=wrap;html=1;aspect=fixed;fillColor=#001135;strokeColor=none;connectable=1;allowArrows=1;" vertex="1" parent="0o2wJ7BKKzap-cEXDgxu-11">
          <mxGeometry x="0.24500000000000455" width="75" height="75" as="geometry" />
        </mxCell>
        <mxCell id="0o2wJ7BKKzap-cEXDgxu-13" value="" style="endArrow=none;html=1;rounded=0;entryX=0.907;entryY=0.793;entryDx=0;entryDy=0;entryPerimeter=0;exitX=0.08;exitY=0.793;exitDx=0;exitDy=0;exitPerimeter=0;strokeColor=#FFFFFF;strokeWidth=2;" edge="1" parent="0o2wJ7BKKzap-cEXDgxu-11">
          <mxGeometry width="50" height="50" relative="1" as="geometry">
            <mxPoint x="6.490000000000009" y="60.23500000000013" as="sourcePoint" />
            <mxPoint x="68.5150000000001" y="60.23500000000013" as="targetPoint" />
          </mxGeometry>
        </mxCell>
        <mxCell id="0o2wJ7BKKzap-cEXDgxu-14" value="" style="rounded=1;whiteSpace=wrap;html=1;arcSize=14;fillColor=none;strokeColor=#FFFFFF;strokeWidth=2;" vertex="1" parent="0o2wJ7BKKzap-cEXDgxu-11">
          <mxGeometry x="12.245000000000005" y="18.27" width="51" height="38.46" as="geometry" />
        </mxCell>
        <mxCell id="0o2wJ7BKKzap-cEXDgxu-15" value="" style="ellipse;whiteSpace=wrap;html=1;aspect=fixed;strokeColor=none;" vertex="1" parent="0o2wJ7BKKzap-cEXDgxu-11">
          <mxGeometry x="36.245000000000005" y="36" width="3" height="3" as="geometry" />
        </mxCell>
        <mxCell id="0o2wJ7BKKzap-cEXDgxu-16" value="" style="group;aspect=fixed;" vertex="1" connectable="0" parent="ywT9E99J_NDp3-aMBiTF-2">
          <mxGeometry x="209.7550000000001" y="120" width="75.49000000000001" height="75" as="geometry" />
        </mxCell>
        <mxCell id="0o2wJ7BKKzap-cEXDgxu-17" value="" style="whiteSpace=wrap;html=1;aspect=fixed;fillColor=#001135;strokeColor=none;connectable=1;allowArrows=1;" vertex="1" parent="0o2wJ7BKKzap-cEXDgxu-16">
          <mxGeometry x="0.24500000000000455" width="75" height="75" as="geometry" />
        </mxCell>
        <mxCell id="0o2wJ7BKKzap-cEXDgxu-18" value="" style="endArrow=none;html=1;rounded=0;entryX=0.907;entryY=0.793;entryDx=0;entryDy=0;entryPerimeter=0;exitX=0.08;exitY=0.793;exitDx=0;exitDy=0;exitPerimeter=0;strokeColor=#FFFFFF;strokeWidth=2;" edge="1" parent="0o2wJ7BKKzap-cEXDgxu-16">
          <mxGeometry width="50" height="50" relative="1" as="geometry">
            <mxPoint x="6.490000000000009" y="60.23500000000013" as="sourcePoint" />
            <mxPoint x="68.5150000000001" y="60.23500000000013" as="targetPoint" />
          </mxGeometry>
        </mxCell>
        <mxCell id="0o2wJ7BKKzap-cEXDgxu-19" value="" style="rounded=1;whiteSpace=wrap;html=1;arcSize=14;fillColor=none;strokeColor=#FFFFFF;strokeWidth=2;" vertex="1" parent="0o2wJ7BKKzap-cEXDgxu-16">
          <mxGeometry x="12.245000000000005" y="18.27" width="51" height="38.46" as="geometry" />
        </mxCell>
        <mxCell id="0o2wJ7BKKzap-cEXDgxu-20" value="" style="ellipse;whiteSpace=wrap;html=1;aspect=fixed;strokeColor=none;" vertex="1" parent="0o2wJ7BKKzap-cEXDgxu-16">
          <mxGeometry x="36.245000000000005" y="36" width="3" height="3" as="geometry" />
        </mxCell>
        <mxCell id="ywT9E99J_NDp3-aMBiTF-1" value="DC1" style="points=[[0,0],[0.25,0],[0.5,0],[0.75,0],[1,0],[1,0.25],[1,0.5],[1,0.75],[1,1],[0.75,1],[0.5,1],[0.25,1],[0,1],[0,0.75],[0,0.5],[0,0.25]];outlineConnect=0;html=1;whiteSpace=wrap;fontSize=12;fontStyle=0;container=1;pointerEvents=0;collapsible=0;recursiveResize=0;shape=mxgraph.aws4.group;grIcon=mxgraph.aws4.group_aws_cloud;strokeColor=#6c8ebf;fillColor=#dae8fc;verticalAlign=top;align=left;spacingLeft=30;dashed=0;" vertex="1" parent="17fbx9JNhlAnguyRdzwW-1">
          <mxGeometry x="260" y="370" width="330" height="260" as="geometry" />
        </mxCell>
        <mxCell id="0o2wJ7BKKzap-cEXDgxu-0" value="" style="group;aspect=fixed;" vertex="1" connectable="0" parent="ywT9E99J_NDp3-aMBiTF-1">
          <mxGeometry x="69.99500000000012" y="120" width="75.49000000000001" height="75" as="geometry" />
        </mxCell>
        <mxCell id="0o2wJ7BKKzap-cEXDgxu-1" value="" style="whiteSpace=wrap;html=1;aspect=fixed;fillColor=#001135;strokeColor=none;connectable=1;allowArrows=1;" vertex="1" parent="0o2wJ7BKKzap-cEXDgxu-0">
          <mxGeometry x="0.24500000000000455" width="75" height="75" as="geometry" />
        </mxCell>
        <mxCell id="0o2wJ7BKKzap-cEXDgxu-2" value="" style="endArrow=none;html=1;rounded=0;entryX=0.907;entryY=0.793;entryDx=0;entryDy=0;entryPerimeter=0;exitX=0.08;exitY=0.793;exitDx=0;exitDy=0;exitPerimeter=0;strokeColor=#FFFFFF;strokeWidth=2;" edge="1" parent="0o2wJ7BKKzap-cEXDgxu-0">
          <mxGeometry width="50" height="50" relative="1" as="geometry">
            <mxPoint x="6.490000000000009" y="60.23500000000013" as="sourcePoint" />
            <mxPoint x="68.5150000000001" y="60.23500000000013" as="targetPoint" />
          </mxGeometry>
        </mxCell>
        <mxCell id="0o2wJ7BKKzap-cEXDgxu-3" value="" style="rounded=1;whiteSpace=wrap;html=1;arcSize=14;fillColor=none;strokeColor=#FFFFFF;strokeWidth=2;" vertex="1" parent="0o2wJ7BKKzap-cEXDgxu-0">
          <mxGeometry x="12.245000000000005" y="15.760000000000048" width="51" height="38.46" as="geometry" />
        </mxCell>
        <mxCell id="0o2wJ7BKKzap-cEXDgxu-4" value="" style="ellipse;whiteSpace=wrap;html=1;aspect=fixed;strokeColor=none;" vertex="1" parent="0o2wJ7BKKzap-cEXDgxu-0">
          <mxGeometry x="36.245000000000005" y="21.220000000000027" width="3" height="3" as="geometry" />
        </mxCell>
        <mxCell id="0o2wJ7BKKzap-cEXDgxu-6" value="" style="group;aspect=fixed;" vertex="1" connectable="0" parent="ywT9E99J_NDp3-aMBiTF-1">
          <mxGeometry x="229.7550000000001" y="120" width="75.49000000000001" height="75" as="geometry" />
        </mxCell>
        <mxCell id="0o2wJ7BKKzap-cEXDgxu-7" value="" style="whiteSpace=wrap;html=1;aspect=fixed;fillColor=#001135;strokeColor=none;connectable=1;allowArrows=1;" vertex="1" parent="0o2wJ7BKKzap-cEXDgxu-6">
          <mxGeometry x="0.24500000000000455" width="75" height="75" as="geometry" />
        </mxCell>
        <mxCell id="0o2wJ7BKKzap-cEXDgxu-8" value="" style="endArrow=none;html=1;rounded=0;entryX=0.907;entryY=0.793;entryDx=0;entryDy=0;entryPerimeter=0;exitX=0.08;exitY=0.793;exitDx=0;exitDy=0;exitPerimeter=0;strokeColor=#FFFFFF;strokeWidth=2;" edge="1" parent="0o2wJ7BKKzap-cEXDgxu-6">
          <mxGeometry width="50" height="50" relative="1" as="geometry">
            <mxPoint x="6.490000000000009" y="60.23500000000013" as="sourcePoint" />
            <mxPoint x="68.5150000000001" y="60.23500000000013" as="targetPoint" />
          </mxGeometry>
        </mxCell>
        <mxCell id="0o2wJ7BKKzap-cEXDgxu-9" value="" style="rounded=1;whiteSpace=wrap;html=1;arcSize=14;fillColor=none;strokeColor=#FFFFFF;strokeWidth=2;" vertex="1" parent="0o2wJ7BKKzap-cEXDgxu-6">
          <mxGeometry x="12.245000000000005" y="15.760000000000048" width="51" height="38.46" as="geometry" />
        </mxCell>
        <mxCell id="0o2wJ7BKKzap-cEXDgxu-10" value="" style="ellipse;whiteSpace=wrap;html=1;aspect=fixed;strokeColor=none;" vertex="1" parent="0o2wJ7BKKzap-cEXDgxu-6">
          <mxGeometry x="36.245000000000005" y="21.220000000000027" width="3" height="3" as="geometry" />
        </mxCell>
        <object label="" src_label="eth1" trgt_label="e1-1" source="client1-dc1" target="leaf1-dc1" id="17fbx9JNhlAnguyRdzwW-63">
          <mxCell style="endArrow=none;jumpStyle=gap;entryY=1.006;exitY=0;entryX=0.13;exitX=0.5;exitDx=0;exitDy=0;entryDx=0;entryDy=0;fontFamily=Google Sans;fontSource=https%3A%2F%2Ffonts.googleapis.com%2Fcss%3Ffamily%3DGoogle%2BSans;entryPerimeter=0;" edge="1" parent="17fbx9JNhlAnguyRdzwW-1" target="dQcBlTnP8QDq7_lb0F3g-0">
            <mxGeometry relative="1" as="geometry">
              <mxPoint x="367.5" y="489.5400000000001" as="sourcePoint" />
              <mxPoint x="367.5" y="424.53999999999996" as="targetPoint" />
            </mxGeometry>
          </mxCell>
        </object>
        <mxCell id="17fbx9JNhlAnguyRdzwW-64" value="eth1" style="labelBackgroundColor=#ffffff;;fontFamily=Google Sans;fontSource=https%3A%2F%2Ffonts.googleapis.com%2Fcss%3Ffamily%3DGoogle%2BSans;" vertex="1" connectable="0" parent="17fbx9JNhlAnguyRdzwW-63">
          <mxGeometry x="-0.5" relative="1" as="geometry">
            <mxPoint as="offset" />
          </mxGeometry>
        </mxCell>
        <object label="" src_label="eth1" trgt_label="e1-1" source="client1-dc2" target="leaf1-dc2" id="17fbx9JNhlAnguyRdzwW-108">
          <mxCell style="endArrow=none;jumpStyle=gap;entryY=0.983;exitY=0;entryX=0.141;exitX=0.5;entryDx=0;entryDy=0;exitDx=0;exitDy=0;fontFamily=Google Sans;fontSource=https%3A%2F%2Ffonts.googleapis.com%2Fcss%3Ffamily%3DGoogle%2BSans;entryPerimeter=0;" edge="1" parent="17fbx9JNhlAnguyRdzwW-1" source="0o2wJ7BKKzap-cEXDgxu-12" target="dQcBlTnP8QDq7_lb0F3g-3">
            <mxGeometry relative="1" as="geometry">
              <mxPoint x="767.5" y="484.93000000000006" as="sourcePoint" />
              <mxPoint x="767.5" y="439.92999999999984" as="targetPoint" />
            </mxGeometry>
          </mxCell>
        </object>
        <mxCell id="17fbx9JNhlAnguyRdzwW-109" value="eth1" style="labelBackgroundColor=#ffffff;;fontFamily=Google Sans;fontSource=https%3A%2F%2Ffonts.googleapis.com%2Fcss%3Ffamily%3DGoogle%2BSans;" vertex="1" connectable="0" parent="17fbx9JNhlAnguyRdzwW-108">
          <mxGeometry x="-0.5" relative="1" as="geometry">
            <mxPoint as="offset" />
          </mxGeometry>
        </mxCell>
        <object label="" src_label="eth1" trgt_label="e1-1" source="client1-dc1" target="leaf1-dc1" id="17fbx9JNhlAnguyRdzwW-112">
          <mxCell style="endArrow=none;jumpStyle=gap;entryY=0.999;exitY=0;entryX=0.891;exitX=0.5;exitDx=0;exitDy=0;entryDx=0;entryDy=0;fontFamily=Google Sans;fontSource=https%3A%2F%2Ffonts.googleapis.com%2Fcss%3Ffamily%3DGoogle%2BSans;entryPerimeter=0;" edge="1" parent="17fbx9JNhlAnguyRdzwW-1" source="0o2wJ7BKKzap-cEXDgxu-7" target="dQcBlTnP8QDq7_lb0F3g-0">
            <mxGeometry relative="1" as="geometry">
              <mxPoint x="527.5" y="484.93000000000006" as="sourcePoint" />
              <mxPoint x="527.5" y="424.53999999999996" as="targetPoint" />
            </mxGeometry>
          </mxCell>
        </object>
        <mxCell id="17fbx9JNhlAnguyRdzwW-113" value="eth1" style="labelBackgroundColor=#ffffff;;fontFamily=Google Sans;fontSource=https%3A%2F%2Ffonts.googleapis.com%2Fcss%3Ffamily%3DGoogle%2BSans;" vertex="1" connectable="0" parent="17fbx9JNhlAnguyRdzwW-112">
          <mxGeometry x="-0.5" relative="1" as="geometry">
            <mxPoint as="offset" />
          </mxGeometry>
        </mxCell>
        <object label="" src_label="eth1" trgt_label="e1-1" source="client1-dc2" target="leaf1-dc2" id="17fbx9JNhlAnguyRdzwW-116">
          <mxCell style="endArrow=none;jumpStyle=gap;entryY=1;exitY=0;entryX=0.5;exitX=0.5;entryDx=0;entryDy=0;exitDx=0;exitDy=0;fontFamily=Google Sans;fontSource=https%3A%2F%2Ffonts.googleapis.com%2Fcss%3Ffamily%3DGoogle%2BSans;" edge="1" parent="17fbx9JNhlAnguyRdzwW-1" source="0o2wJ7BKKzap-cEXDgxu-17">
            <mxGeometry relative="1" as="geometry">
              <mxPoint x="927.5" y="484.93000000000006" as="sourcePoint" />
              <mxPoint x="927.5" y="439.92999999999984" as="targetPoint" />
            </mxGeometry>
          </mxCell>
        </object>
        <mxCell id="17fbx9JNhlAnguyRdzwW-117" value="eth1" style="labelBackgroundColor=#ffffff;;fontFamily=Google Sans;fontSource=https%3A%2F%2Ffonts.googleapis.com%2Fcss%3Ffamily%3DGoogle%2BSans;" vertex="1" connectable="0" parent="17fbx9JNhlAnguyRdzwW-116">
          <mxGeometry x="-0.5" relative="1" as="geometry">
            <mxPoint as="offset" />
          </mxGeometry>
        </mxCell>
        <mxCell id="dQcBlTnP8QDq7_lb0F3g-0" value="subnetA (mac-vrf)&lt;br&gt;10.0.0.0/24" style="rounded=1;whiteSpace=wrap;html=1;fontFamily=Google Sans;fontSource=https%3A%2F%2Ffonts.googleapis.com%2Fcss%3Ffamily%3DGoogle%2BSans;" vertex="1" parent="17fbx9JNhlAnguyRdzwW-1">
          <mxGeometry x="340" y="400" width="210" height="40" as="geometry" />
        </mxCell>
        <mxCell id="dQcBlTnP8QDq7_lb0F3g-1" value="client1-dc1&#xa;10.0.0.1/24" style="text;align=center;verticalAlign=middle;resizable=0;points=[];autosize=1;strokeColor=none;fillColor=none;fontFamily=Fira Code;fontSource=https%3A%2F%2Ffonts.googleapis.com%2Fcss%3Ffamily%3DFira%2BCode;shadow=0;textShadow=0;" vertex="1" parent="17fbx9JNhlAnguyRdzwW-1">
          <mxGeometry x="317.5" y="570" width="100" height="40" as="geometry" />
        </mxCell>
        <mxCell id="dQcBlTnP8QDq7_lb0F3g-2" value="client2-dc1&#xa;10.0.0.4/24" style="text;align=center;verticalAlign=middle;resizable=0;points=[];autosize=1;strokeColor=none;fillColor=none;fontFamily=Fira Code;fontSource=https%3A%2F%2Ffonts.googleapis.com%2Fcss%3Ffamily%3DFira%2BCode;shadow=0;textShadow=0;" vertex="1" parent="17fbx9JNhlAnguyRdzwW-1">
          <mxGeometry x="477.5" y="570" width="100" height="40" as="geometry" />
        </mxCell>
        <mxCell id="dQcBlTnP8QDq7_lb0F3g-3" value="subnetB (mac-vrf)&lt;br&gt;20.0.0.0/24" style="rounded=1;whiteSpace=wrap;html=1;fontFamily=Google Sans;fontSource=https%3A%2F%2Ffonts.googleapis.com%2Fcss%3Ffamily%3DGoogle%2BSans;" vertex="1" parent="17fbx9JNhlAnguyRdzwW-1">
          <mxGeometry x="740" y="400" width="210" height="40" as="geometry" />
        </mxCell>
        <mxCell id="dQcBlTnP8QDq7_lb0F3g-4" value="client3-dc2&#xa;20.0.0.1/24" style="text;align=center;verticalAlign=middle;resizable=0;points=[];autosize=1;strokeColor=none;fillColor=none;fontFamily=Fira Code;fontSource=https%3A%2F%2Ffonts.googleapis.com%2Fcss%3Ffamily%3DFira%2BCode;shadow=0;textShadow=0;" vertex="1" parent="17fbx9JNhlAnguyRdzwW-1">
          <mxGeometry x="717.5" y="570" width="100" height="40" as="geometry" />
        </mxCell>
        <mxCell id="dQcBlTnP8QDq7_lb0F3g-5" value="client4-dc1&#xa;20.0.0.4/24" style="text;align=center;verticalAlign=middle;resizable=0;points=[];autosize=1;strokeColor=none;fillColor=none;fontFamily=Fira Code;fontSource=https%3A%2F%2Ffonts.googleapis.com%2Fcss%3Ffamily%3DFira%2BCode;shadow=0;textShadow=0;" vertex="1" parent="17fbx9JNhlAnguyRdzwW-1">
          <mxGeometry x="877.5" y="570" width="100" height="40" as="geometry" />
        </mxCell>
        <object label="" src_label="eth1" trgt_label="e1-1" source="client1-dc1" target="leaf1-dc1" id="olXUVRZC3Hp8og-PnZ4X-0">
          <mxCell style="endArrow=none;jumpStyle=gap;entryY=1;exitY=0;entryX=0.25;exitX=0.75;exitDx=0;exitDy=0;entryDx=0;entryDy=0;fontFamily=Google Sans;fontSource=https%3A%2F%2Ffonts.googleapis.com%2Fcss%3Ffamily%3DGoogle%2BSans;" edge="1" parent="17fbx9JNhlAnguyRdzwW-1" source="dQcBlTnP8QDq7_lb0F3g-0" target="dQcBlTnP8QDq7_lb0F3g-6">
            <mxGeometry relative="1" as="geometry">
              <mxPoint x="538" y="495" as="sourcePoint" />
              <mxPoint x="537" y="450" as="targetPoint" />
            </mxGeometry>
          </mxCell>
        </object>
        <mxCell id="olXUVRZC3Hp8og-PnZ4X-1" value="" style="labelBackgroundColor=#ffffff;;fontFamily=Google Sans;fontSource=https%3A%2F%2Ffonts.googleapis.com%2Fcss%3Ffamily%3DGoogle%2BSans;" vertex="1" connectable="0" parent="olXUVRZC3Hp8og-PnZ4X-0">
          <mxGeometry x="-0.5" relative="1" as="geometry">
            <mxPoint as="offset" />
          </mxGeometry>
        </mxCell>
        <object label="" src_label="eth1" trgt_label="e1-1" source="client1-dc1" target="leaf1-dc1" id="olXUVRZC3Hp8og-PnZ4X-2">
          <mxCell style="endArrow=none;jumpStyle=gap;entryY=1;exitY=0;entryX=0.75;exitX=0.25;exitDx=0;exitDy=0;entryDx=0;entryDy=0;fontFamily=Google Sans;fontSource=https%3A%2F%2Ffonts.googleapis.com%2Fcss%3Ffamily%3DGoogle%2BSans;" edge="1" parent="17fbx9JNhlAnguyRdzwW-1" source="dQcBlTnP8QDq7_lb0F3g-3" target="dQcBlTnP8QDq7_lb0F3g-6">
            <mxGeometry relative="1" as="geometry">
              <mxPoint x="510" y="406" as="sourcePoint" />
              <mxPoint x="603" y="310" as="targetPoint" />
            </mxGeometry>
          </mxCell>
        </object>
        <mxCell id="olXUVRZC3Hp8og-PnZ4X-3" value="" style="labelBackgroundColor=#ffffff;;fontFamily=Google Sans;fontSource=https%3A%2F%2Ffonts.googleapis.com%2Fcss%3Ffamily%3DGoogle%2BSans;" vertex="1" connectable="0" parent="olXUVRZC3Hp8og-PnZ4X-2">
          <mxGeometry x="-0.5" relative="1" as="geometry">
            <mxPoint as="offset" />
          </mxGeometry>
        </mxCell>
        <mxCell id="olXUVRZC3Hp8og-PnZ4X-5" value="" style="group;fillColor=#D4E1F5;fillStyle=hatch;" vertex="1" connectable="0" parent="17fbx9JNhlAnguyRdzwW-1">
          <mxGeometry x="541" y="310" width="210" height="40" as="geometry" />
        </mxCell>
        <mxCell id="dQcBlTnP8QDq7_lb0F3g-6" value="IP VRF" style="rounded=1;whiteSpace=wrap;html=1;fontFamily=Google Sans;fontSource=https%3A%2F%2Ffonts.googleapis.com%2Fcss%3Ffamily%3DGoogle%2BSans;" vertex="1" parent="olXUVRZC3Hp8og-PnZ4X-5">
          <mxGeometry width="210" height="40" as="geometry" />
        </mxCell>
        <mxCell id="olXUVRZC3Hp8og-PnZ4X-4" value="" style="sketch=0;points=[[0.5,0,0],[1,0.5,0],[0.5,1,0],[0,0.5,0],[0.145,0.145,0],[0.8555,0.145,0],[0.855,0.8555,0],[0.145,0.855,0]];verticalLabelPosition=bottom;html=1;verticalAlign=top;aspect=fixed;align=center;pointerEvents=1;shape=mxgraph.cisco19.rect;prIcon=router;fillColor=#FAFAFA;strokeColor=#005073;" vertex="1" parent="olXUVRZC3Hp8og-PnZ4X-5">
          <mxGeometry x="10" y="6.25" width="27.5" height="27.5" as="geometry" />
        </mxCell>
        <mxCell id="olXUVRZC3Hp8og-PnZ4X-6" value="" style="sketch=0;points=[[0.015,0.015,0],[0.985,0.015,0],[0.985,0.985,0],[0.015,0.985,0],[0.25,0,0],[0.5,0,0],[0.75,0,0],[1,0.25,0],[1,0.5,0],[1,0.75,0],[0.75,1,0],[0.5,1,0],[0.25,1,0],[0,0.75,0],[0,0.5,0],[0,0.25,0]];verticalLabelPosition=bottom;html=1;verticalAlign=top;aspect=fixed;align=center;pointerEvents=1;shape=mxgraph.cisco19.rect;prIcon=l2_switch;fillColor=#FAFAFA;strokeColor=#005073;" vertex="1" parent="17fbx9JNhlAnguyRdzwW-1">
          <mxGeometry x="350" y="405" width="30" height="30" as="geometry" />
        </mxCell>
        <mxCell id="olXUVRZC3Hp8og-PnZ4X-7" value="" style="sketch=0;points=[[0.015,0.015,0],[0.985,0.015,0],[0.985,0.985,0],[0.015,0.985,0],[0.25,0,0],[0.5,0,0],[0.75,0,0],[1,0.25,0],[1,0.5,0],[1,0.75,0],[0.75,1,0],[0.5,1,0],[0.25,1,0],[0,0.75,0],[0,0.5,0],[0,0.25,0]];verticalLabelPosition=bottom;html=1;verticalAlign=top;aspect=fixed;align=center;pointerEvents=1;shape=mxgraph.cisco19.rect;prIcon=l2_switch;fillColor=#FAFAFA;strokeColor=#005073;" vertex="1" parent="17fbx9JNhlAnguyRdzwW-1">
          <mxGeometry x="751" y="405" width="30" height="30" as="geometry" />
        </mxCell>
      </root>
    </mxGraphModel>
  </diagram>
</mxfile>
